<?xml version="1.0" encoding="UTF-8"?>
<svg id="Layer_1" data-name="Layer 1" xmlns="http://www.w3.org/2000/svg" viewBox="0 0 1798.36 750">
  <defs>
    <style>
      .cls-1 {
        fill: #fec7f9;
      }

      .cls-2 {
        fill: #feb2f7;
      }

      .cls-3 {
        fill: #fc8ef1;
      }

      .cls-4 {
        fill: #fea8f5;
      }

      .cls-5 {
        fill: #fe85f3;
      }

      .cls-6 {
        fill: #fec3f8;
      }

      .cls-7 {
        fill: #fe75f1;
      }

      .cls-8 {
        fill: #feebfb;
      }

      .cls-9 {
        fill: #feb7f7;
      }

      .cls-10 {
        fill: #fee2fb;
      }

      .cls-11 {
        fill: #fec1f9;
      }

      .cls-12 {
        fill: #fe38eb;
      }

      .cls-13 {
        fill: #fe70f0;
      }

      .cls-14 {
        fill: #fe69f0;
      }

      .cls-15 {
        fill: #fe3feb;
      }

      .cls-16 {
        fill: #fea3f5;
      }

      .cls-17 {
        fill: #fecaf8;
      }

      .cls-18 {
        fill: #fe96f4;
      }

      .cls-19 {
        fill: #fd89f1;
      }

      .cls-20 {
        fill: #feaef7;
      }

      .cls-21 {
        fill: #fe57ee;
      }

      .cls-22 {
        fill: #fe7bf1;
      }

      .cls-23 {
        fill: #fec1f8;
      }

      .cls-24 {
        fill: #fec6f9;
      }

      .cls-25 {
        fill: #fc97f2;
      }

      .cls-26 {
        fill: #fe98f4;
      }

      .cls-27 {
        fill: #feb5f8;
      }

      .cls-28 {
        fill: #feb9f7;
      }

      .cls-29 {
        fill: #fe4eed;
      }

      .cls-30 {
        fill: #fe3eeb;
      }

      .cls-31 {
        fill: #fd5cee;
      }

      .cls-32 {
        fill: #fea0f5;
      }

      .cls-33 {
        fill: #febdf8;
      }

      .cls-34 {
        fill: #febbf8;
      }

      .cls-35 {
        fill: #fea8f6;
      }

      .cls-36 {
        fill: #fea5f6;
      }

      .cls-37 {
        fill: #fe7df1;
      }

      .cls-38 {
        fill: #fd01e4;
      }

      .cls-39 {
        fill: #fed1fa;
      }

      .cls-40 {
        fill: #fe14e7;
      }

      .cls-41 {
        fill: #fff;
      }

      .cls-42 {
        fill: #fedcfb;
      }

      .cls-43 {
        fill: #f9f9f9;
      }

      .cls-44 {
        fill: #fe85f2;
      }

      .cls-45 {
        fill: #fee6fb;
      }

      .cls-46 {
        fill: #fe48ed;
      }

      .cls-47 {
        fill: #fec0f8;
      }

      .cls-48 {
        fill: #fafafa;
      }

      .cls-49 {
        fill: #fe5cef;
      }

      .cls-50 {
        fill: #fd8ff2;
      }

      .cls-51 {
        fill: #fe1ce8;
      }

      .cls-52 {
        fill: #fe90f3;
      }

      .cls-53 {
        fill: #fe64ef;
      }

      .cls-54 {
        fill: #fefefe;
      }

      .cls-55 {
        fill: #fea2f5;
      }

      .cls-56 {
        fill: #fe7ff2;
      }

      .cls-57 {
        fill: #fee3fa;
      }

      .cls-58 {
        fill: #fed6fa;
      }

      .cls-59 {
        fill: #fe27e9;
      }

      .cls-60 {
        fill: #feeffc;
      }

      .cls-61 {
        fill: #f815e2;
      }

      .cls-62 {
        fill: #fe2eea;
      }

      .cls-63 {
        fill: #ff8bf4;
      }

      .cls-64 {
        fill: #feabf6;
      }

      .cls-65 {
        fill: #fec5f8;
      }

      .cls-66 {
        fill: #fbfbfb;
      }

      .cls-67 {
        fill: #fe9bf4;
      }

      .cls-68 {
        fill: #febff8;
      }

      .cls-69 {
        fill: #fee8fc;
      }

      .cls-70 {
        fill: #fec9f9;
      }

      .cls-71 {
        fill: #febcf8;
      }

      .cls-72 {
        fill: #feacf6;
      }

      .cls-73 {
        fill: #feaff7;
      }

      .cls-74 {
        fill: #feb0f7;
      }

      .cls-75 {
        fill: #fecbf9;
      }

      .cls-76 {
        fill: #feb1f7;
      }

      .cls-77 {
        fill: #fedefb;
      }

      .cls-78 {
        fill: #fef5fd;
      }

      .cls-79 {
        fill: #fecef9;
      }

      .cls-80 {
        fill: #fedbfb;
      }

      .cls-81 {
        fill: #fdfdfd;
      }

      .cls-82 {
        fill: #feecfc;
      }

      .cls-83 {
        fill: #fea9f6;
      }
    </style>
  </defs>
  <g>
    <path class="cls-54" d="M593.07,601.81c-12.15-8.42-28.66-15.09-43.16-17.77l-3.57-4.57c-21.43-10.49-41.97-22.99-59.44-39.37l-5.52-1.74-1.32-4.91c-11.26-11.43-20.61-24.63-27.53-39.13l-4.15-2.93c.58-5.2-.64-10.71-3.66-16.52-1.63-8.5-4.64-16.11-9.05-22.83,1.96-.93,1.54-2.2-1.27-3.79.51-14.08-2.9-31.17-10.15-43.16.76-8.42-.81-17.07-4.73-25.95-1.68-8.54-5.18-15.55-10.5-21.02.15-6.78-2.32-13.57-7.42-20.36-6.44-15.35-50.56-67.89-64.79-67.64-.9.02-1.8.19-2.68.42-.39-1.71-.81-2.13-1.27-1.27l-1.47-3.57c-12.99-5.95-26.66-10.79-40.64-13.82l-2.32,2.17c-6.88-5.67-18.6-4.54-26.65-1.27-21.04.25-43.65,5.13-59.68,19.67-31.1,28.2-18.24,83.41,28.42,79.19,12.91-1.17,26.43-6.81,38.86-10.01,10.54-.41,21.07-.9,31.59-1.47,55.17.95,72.6,35.2,83.41,84.58l3.05,3.22c-1.49,13.52,3.54,29.3,7.79,42.31l2.35,2.1c-.37.97-.71,1.93-.88,2.91-1.17,6.81,11.77,32.51,15.99,40.03,12.38,22.05,30.61,45.6,54.71,54.8l.93,3.02c33.08,17.75,74.51,30.57,112.53,33.03,3.9.25,15.28.39,12.2-4.32ZM251.69,291.41c21.07,19.19-10.38,49.07-28.81,29.44-18.04-19.21,10.2-46.38,28.81-29.44Z"/>
    <path class="cls-54" d="M303.41,395.81c-8.99-23.11-44.8-23.49-53.07.38l-97.59-29.32c1.08-9.89-4.46-17.99-13.55-21.41,1.19-8.06,4.16-61.99,7.05-64.18,3.45-2.62,8.29-.83,13.28-8.3,4.41-6.61,2.17-10.5,4.51-17.07l82.12-39.76c2.19-.2,5.26,4.47,7.58,5.94,22.58,14.33,47.71-11.45,33.22-33.22-10.95-16.45-34.56-13.15-42.41,4.28l-72.82-17.87c.64-5.17-1.9-12.37-5.57-16.02-20.53-20.48-50.63,20.49-18.51,33.41l-5.73,50.01c-9.63,1.95-14.17,8.06-18.05,16.48-4.8-.84-9.16.99-13.7,1.27-5.47.33-24.85.98-28.99-.03-1.47-.37-2.35-4.62-3.83-5.98-11.61-10.75-29.13,10.41-13.17,18.9,10.46,5.57,12.91-5.19,23.23-6.45,4.84-.59,33.24-1.02,36.47.05,2.16.71,8.12,14.64,14.65,13.91l-6.37,64.42c-9.56-2.52-16.25,14.44-18.44,15.19-3.71,1.27-16.31.02-21.43.15-3.47.1-8.04,2.16-11.16,1.4-1.66-.41-1.73-9.86-12.88-9.04-14.95,1.1-12.84,23,1.25,23,7.35,0,9.38-7.06,12.67-7.71l31.58-1.08c4.77,9.58,10.49,16.76,22.22,16.49l27.79,99.53c-7.65,5.21-12.59,12.67-10.56,22.23,4.79,22.5,41.42,19.7,37.23-9.31-.32-2.25-3.66-4.43-1.1-6.68l68-59.99c24.16,19.55,57.34-4.69,46.08-33.62ZM154.07,193.91c.63-1.89,8.37-3.25,11.55-5.87,2.46-2.01,3.28-7,7.6-6.14,7.96,4.38,67.34,14.79,69.33,17.76.44.66,2.03,9.69.23,10.57l-79.97,39.43c-4.62,2.13-6.56-1.83-9.74-4.37-1.1-.87-3.75-1.08-4.11-1.56-1.48-2.02,5.89-43.38,5.11-49.82ZM249.07,427.21c-20.98,20.13-43.19,38.92-64.68,58.5-4.83-3.18-13.17-1.69-15.37-6.28l-26.41-97.62c4.15-2.13,6.84-8.73,10.47-8.44l92.64,28.09c3.68,2.12,1.57,7.5,2.4,11.56.92,4.47,3.96,7.87,4.69,12.23-1.38.39-2.68.94-3.74,1.96Z"/>
    <path class="cls-57" d="M626.06,115.68c-3.38,1.69-11.21-5.09-10.15-8.88l-4.56-.18c-15.56-11.29-34.13-16.58-52.84-19.81-2.09-2.36-4.96-3.73-8.61-4.13l-4.11,1.86c-20.34-2.18-39.77-7.37-58.29-15.59l-2.33-4.04c-3.85,3.2-11.48-3.16-12.69-7.62l-3.98.39c-31.83-26.96-59.42-46.64-101.82-24.58-15.82,8.29-31.04,17.6-45.66,27.95-30.4,22.27-63.61,23.9-99.66,17.08l-4-3.07C273.81,20.71,369.17-6.87,446.45,1.46c73.85,7.96,141.55,50.82,179.61,114.22Z"/>
    <path class="cls-78" d="M426.79,137.26c2.97-1.96,6.69-1.51,11.15,1.36,5.77,2.17,16.04,6.03,18.04,11.33,11.27,5.97,20.18,13.07,28.82,22.37,7.79,8.38,18.32,19.87,19.42,30.94l5.12,4.08c12.12,24.09,21.45,49.76,28.63,75.75.26.96.17,2.02.04,3.13s-.43,2.24-.78,3.35c7.14,10.25,10.7,25.55,10.15,38.08l3.64,3.46,8.78,29.64-1,4.98,3.31,1.84c3.14,10.86,7.36,21.26,12.67,31.2l-.76,3.76,3.87,1.48c11,19.52,29.56,29.53,51.9,24.6l3.89,1.85c1.68-.36,2.04-.43,1.27,1.27-.5,1.51-1.45,2.73-3.04,2.99-34.02,5.66-51.2,1.75-70.75-29.04l.17-4.41-3.83-1.77c-6.21-10.27-11.6-20.97-16.17-32.08l.96-4.22c-2.04-1.51-3.79-3.3-5-5.53-5.02-9.21-9.68-23.59-10.23-33.82-4.83-2.27-8.18-13.33-6.35-17.77-9.74-21.13-19.31-42.48-27.67-64.11l-.25-4.43-5.55-5.49c-16.85-34.57-43.05-68.25-84.5-70.47l-3.87-2.74c-5.36,2.52-11.48,3.67-18.38,3.45-7.41,2.08-14.4,2.63-20.97,1.63-.75,1.37-1.63,2.77-3.03,3.55-5.9,3.29-21.34,10-27.87,12.27l-4.64-.59c.08,4.31-6.69,6.3-8.88,2.54.61-8.72-.6-26.73-8.88-31.73-4.38-3.22.01-7.19,2.54-2.54,7.82-7.68,24.82-12.39,35.54-10.15,8.01-5.65,21.28-7.22,30.46-3.81,3.54.09,6.21-.89,8.01-2.93,13.54-.13,27.59-.2,40.58,3.76l3.45,2.98Z"/>
    <path class="cls-47" d="M433.13,54.76l3.1,4.1c15.56,89.2,113.37,145.42,198.67,116.86l5.11.89c.97-.32,2.42-.77,2.92-.17,6.36,7.77,13.39,19.79,16.12,29.36.02.84,0,1.69,0,2.54-.62.95-1.27,1.86-2.05,2.65s-1.51,1.49-2.39,1.82c-36.32,13.58-76.17,14.54-113.74,5.73l-4.94-3.86-2.56-1.25c-20.5-28.13-47.84-46.02-77.4-63.49-8.86-4.05-19.95-10.19-29.19-12.69-11.12-9.46-17.86-26.84-23.04-40.8-6.14-16.54-10.9-36.4-11.23-50.58,3.88-5.19,15.59-3.61,21.78-2.23,6.13,1.37,17.38,4.94,18.83,11.11Z"/>
    <path class="cls-54" d="M383.63,585.31c2.27-2.06,4.94-3.18,7.99-2.84,31.46.92,66.08,2.99,94.82,15.54,3.31.17,6.7,1.01,10.15,2.54,3.45.1,3.45.95,0,2.54-3.6,1.81-12.4,11.63-15.23,15.23-1.02.5-2.06.95-3.14,1.24-3.62.96-43.54-4.65-50.83-6.04-2.12-.4-3.97-1.54-5.69-2.81l-3.25,2.16c-12.18.2-24.37.63-36.3,3.46l-3.6-1.81c-1.54,4.07-14.25,7.51-17.77,5.08-2.54,4.28-11.85,9.62-16.5,7.62l-1.19,3.64c-9.67,5.64-17.96,13.15-25.47,21.39l-3.8.36c.55,4.75-5.32,11.44-10.15,11.42-2,7.64-7.89,18.34-12.69,24.99-1.66-.19-2.96.31-3.81,1.66,1.08,6.07-3.1,13.29-8.88,15.23-6.87-4.43-13.48-9.44-20.31-13.96-2.8-2.47-2.78-4.84,1.27-5.08l-1.03-3.69c4.41-9.06,8.91-18.11,13.9-26.86l3.63-1.17-1.23-2.86c5.6-8.82,11.72-17.41,18.45-25.4l3.09.34-.24-3.46c8.28-8.44,17.62-15.87,27.58-22.24l4.39.32c.24-.87.53-1.72.96-2.48,3.85-6.81,45.18-18.92,54.89-14.02Z"/>
    <path class="cls-64" d="M528.33,469.81c3.19-1.54,4.07-.64,2.54,2.54,19.84,8.81,40.16,9.77,61.36,5.44l19.87-1.63c-.32-3.73,12.7-6.41,16.83-6.93l2.21,1.86c22.91,14.86-.84,22.04-5.08,38.08-.99.8-2,1.55-3.1,2.13-11.07,5.92-58.33,2.49-73.44,1.24-12.17-1.01-24.37-2.32-36.48-3.88-1.08-.14-2.13-.67-3.2-1.23s-2.1-1.3-3.09-2.07c-1.87,1.58-2.58.87-1.27-1.27-7.08-6.4-14.3-12.75-21.66-19.04-14.64-8.5-29.16-17.19-43.57-26.07l-4.58-6.93c-.28-1.04-.86-2.27-1.27-3.81,3.34-.17,6.74-.24,9.99.63,27.8,7.44,57.07,14.98,83.93,20.95Z"/>
    <path class="cls-55" d="M648.91,434.27c2.38,13.33,15.95,20.47-2.09,29.01-7.7,3.65-9.48,1.81-15.68,7.8-.71.68-16.33,4.42-19.04,5.08-22.19,1.62-48.07,1.98-70.24-.75-3.87-.48-7.45-1.26-11-3.06-.88-.77-1.77-1.65-2.54-2.54-8.35-1.74-13.05-18.94-14.18-26.99-1.89-6.9-.97-10.17,2.75-9.82l4.09-1.09c33.48,3.89,67.05,5.38,100.72,4.46,9.4-2.67,18.46-3.38,27.19-2.1Z"/>
    <path class="cls-82" d="M472.48,57.3c3.21,4.59,4.62,10.27,4.24,17.03l13.67,25.88-1.41,2.78-4.2.68c-14.27-9.51-26.95-21.13-38.04-34.87-5.56-4.15-10.1-8.84-13.6-14.05-14.81-8.9-23.37-11.16-40.62-8.88-3.58,3.18-8.45,5.06-14.61,5.63-6.14,2.88-11.85,3.97-17.12,3.26-2.43.62-3.98-1.5-4.65-6.38-14.8,8.51-29.25,17.63-43.34,27.37-15.64,11.56-32.47,14-51.01,14.55-1.98,3.48-4.38,3.5-6.35,0l-3.38,2.42c-10.69-.42-21.43-1.11-31.97-3.07l-2.73-3.16c-1.83,3.17-6.57.24-7.62-2.54,2.62-2.93,3.84-5.25,7.62-8.88,17.38,2.14,33.64,5.13,51.39,3.79,42.21-3.18,71.33-41.75,110.52-53.22,48.92-14.31,58.1,8.59,93.21,31.65Z"/>
    <path class="cls-32" d="M709.83,383.5l-5.4,3.79c-27.08,7.76-55.26,15.52-83.45,15.25-3.76-.62-13.21-2.53-11.42-7.62-8.11-4.24-14.96-17.33-18.77-26.1-.17-.39.32-1.07,1-1.82.7-3.12,3.54-4.42,8.52-3.88,30.91.9,63-6.62,92.83-16.36l7.81-.07c7.75,8.63,18.16,17.05,13.29,30.42-1.39,3.81-2.88,4.14-4.4,6.39Z"/>
    <path class="cls-34" d="M655.25,247.69c-1.39,1.68-2.93,3.41-5.01,4.21-19.77,7.67-65.93,11.19-86.96,7.71-2.19-.36-4.05-1.7-5.77-3.04l-2.4-1.46c-6.14-13.77-12.53-27.25-19.17-40.43,40.38,10.7,84.28,9.7,123.12-6.35.05,14.6-2.95,25.74-3.81,39.35Z"/>
    <path class="cls-16" d="M626.06,509.15c-3.3,12.48.17,22.3,2.54,34.27l.13,4.79c-32.68,3.12-66.39,2-98.49-.55l-5.72-2.97c-3.17,1.74-4.37.64-2.54-2.54-3.37-.36-5.62-2.89-6.74-7.58l-9.55-25.67,1.06-3.55c39.5,4.71,79.63,9.56,119.31,3.81Z"/>
    <path class="cls-13" d="M348.09,642.42c.81,1.46,1.04,4.71.81,6.5-2.59,6.94-2.99,14.63-2.14,22.05,3.32,28.95,22.33,37.93,46.42,46.59,2.37.85,4.8,2.22,6.95,3.55l5.42,2.01c8.74,8,18.96,14.09,29.44,19.51l1.95,3.86c-24.93,4.61-39.81,4.71-64.73,0-15.79-9.44-28-27.82-37.69-43.63-9.08-14.82-19.8-33.25-20.7-50.29,10.25-11.08,17.14-17.74,30.46-25.39,7.12-1.43,5.97,10.51,3.81,15.23Z"/>
    <path class="cls-35" d="M700.95,346.69c-27.82,10.18-57.31,16.82-86.96,19.03-7.38.55-15.06-1.15-22.2,1.28-6.77-4.97-10.28-16.07-8.88-24.12-1.94-1.47-2.7-5.63-1.27-7.62-1.42-4.5-.91-7.03,1.55-7.6,28.43,1.24,56.93-2.36,84.47-10.85l6.63.67c6.64,9.31,18.68,20.3,26.65,29.19Z"/>
    <path class="cls-59" d="M275.75,655.12c-5.39,9.01-11.85,22.11-16.5,31.73l-2.17,1.02c-12.97-6.65-25.79-13.33-38.44-20.06-.53-.42-.87-.46-1.27-1.27-3.11-1.67-4.38-3.79-3.81-6.35-15.03-9.57-30.26-18.88-45.69-27.92l-2.97,1.09c-1.02-.2-15.5-5.14-16.12-5.74-3.67-3.58.31-8.02,5.13-4.24l3.37-3.47c12.02-2.6,23.68-6.27,35-10.99l4.78.5c.36-1.11.78-1.09,1.27,0l7.51,2.36c21.8,14.51,44.24,27.89,67.33,40.15l2.58,3.19Z"/>
    <path class="cls-60" d="M485.17,64.91c2.93,1.94.92,6.46-.44,9.42s56.37,20.43,62.56,17.82l3.89,3.22c1.68.22,3.03-.45,4.1-1.85,17.18,2.98,34.66,6.44,49.86,15.44l1.89,4.18c4.85-.11,9.24,2.41,13.17,7.57,13.47,17.28,25.16,35.92,35.06,55.9,2.45,10.76,3.53,18.1,3.81,29.19l-19.04-29.19c-4.31-3.31-7.7-8.07-10.16-14.27-4.78-5.68-7.74-11.5-8.88-17.46l-4.34-1.4c-13.04-16.8-31.59-26.79-52.73-27.6-21.01.78-41.72-.86-62.13-4.92l-5.19-4.16c-2.16,3.47-7.92.14-7.62-3.81l-14.67-27.96-1.83-17.73c3.46,2.27,9.09,5.72,12.69,7.62Z"/>
    <path class="cls-27" d="M657.79,283.22l.77,4.17c-27.71,7.36-59.36,11.32-87.08,8.52-.91-.34-1.68-.74-1.92-1.35-4.36-10.9-9.34-24.5-12.88-35.66-.2-.63.23-1.46.84-2.34,32.71,3.06,66.4,1.4,97.73-8.88-.66,10.42-.09,25.46,2.54,35.54Z"/>
    <path class="cls-73" d="M674.29,317.49c-20.63,6.32-42.51,11.22-64.11,12.68-8.82.6-17.87-.6-26.68,0-3.62.25-1.32,3.14-1.86,5.09-5.21-12.12-8.83-26.28-10.15-39.35-.61-4.01,1.62-2.4,4.06-2.18,25.19,2.28,53.64-1.96,78.25-7.6,2.24-.51,4.75.66,4-2.92,2.11,8.11,11.54,27.32,16.5,34.27Z"/>
    <path class="cls-77" d="M387.44,427.92c-.69.75-1.73,1.85-2.47,1.58-8.35-3.13-21-10.31-26.73-16.81-2.47.82-2.95-.46-1.27-2.54-5.78-7.55-11.15-15.46-16.1-23.71l-19.44-20.71c-15.38-11.57-31.85-23.55-52.04-24.12,33.55-8.6,74.34-4.83,95.72,25.5,12.94,18.36,16.87,39.58,22.33,60.81Z"/>
    <path class="cls-72" d="M521.98,542.15c.57.87,1.82,1.65,2.54,2.54l5.52,2.33c9.19,8.71,21.7,12.04,34.01,13.28,12.8.44,58.66,3.75,64.22,16.13.55,1.23.66,2.49.33,3.8-.15.37.16.94,0,1.27-3.74,3.97-16.15,6.58-19.67,2.54-.27.99-.69,2.46-1.48,2.54-8.49.83-31.81,1.19-39.82,0l-1.85-2.54c-1.51,2.66-5.26,2.76-11.26.3l-4.61-.3c-26.17-12.66-47.69-25.34-68.54-45.69-.66-1.1-1-2.73-.08-3.23,3.37-1.85,33.41,5.15,40.7,7.04Z"/>
    <path class="cls-83" d="M561.33,401.27c18.79,29.72,38.49,41.73,73.62,30.46,1.21-2.03,5.18-3.19,7.62-2.54-1.6-3.49,4.38-5.57,6.35-2.54.28,2.39-.4,5.37,0,7.62-43.62,7.47-88.43,5.45-132-1.27-1.96-.4-2.28-1.03-.68-1.91l-.59-14.59c-4.35-3.85-7.56-14.64-6.35-20.31.1-.98.48-2.46,1.1-2.44,8.39.29,40.9,2.43,46.86,4.57l4.08,2.95Z"/>
    <path class="cls-79" d="M481.37,618.31c-11.71,14.89-16.43,31.84-12.69,50.77.84,4.54-6.77,9.22-10.15,6.35l-4.21.28c-12.9-8.91-23.63-20.97-30.77-34.96-3.72-7.29-8.77-17.22-5.64-24.98-1.59-2.86-.32-4.55,3.81-5.08,20.61.67,39.43,4.62,59.65,7.62Z"/>
    <path class="cls-62" d="M153.9,623.38c-2.14.55-4.56-1.52-3.81,2.53,6.2.67,13,2.99,17.78,6.35,15.55,9.46,30.78,18.77,45.69,27.92,4.57,4.21,2.51,3.7,3.81,6.35-9.68-2.8-18.23-7.79-27.93-10.78-10.58-3.26-22.04-5.51-32.99-6.99-10.78.08-21.56.05-32.33-.11-2.91-.96-24.93-17.45-25.61-19.37-.73-2.07-.81-2.54.82-4.63,8.75-9.34,16.86-17.12,26.65-25.39l3.24.38c8.25,7.63,16.6,14.87,25.03,21.74l-.35,2Z"/>
    <path class="cls-35" d="M289.71,89.03c.87-.21,2.47-.49,2.68.03,6.12,14.8,14.74,40.65,18.31,56.15l-1.95,2.21c-1.25.5-3.22-1.22-2.54,2.54-9.32-5.63-22.66,2.41-31.73,6.35-.96-.64-1.89-1.32-2.7-2.13-5.56-5.55-19.53-53.11-17.59-60.65.28-1.11.74-2.17,1.25-3.22,2.11.07,4.23,0,6.35,0,8.77-.45,17.48-1.33,26.13-2.64l1.79,1.37Z"/>
    <path class="cls-49" d="M264.32,565c1.09.36,1.07.79,0,1.27-1.82,5.6-6,10.29-12.53,14.07-5.24,5.36-10.79,8.29-16.66,8.78-1.05,1.04-2.9,1.54-4.39,1.41-4.88-.43-42.07-27.71-44.47-30.61-1.19-1.44-1.7-3.24-1.91-5.08,10.51-7.69,21.15-15.26,31.73-22.85l2.47.48c13.12,10.71,27.72,20.37,42.95,28.27l2.81,4.25Z"/>
    <path class="cls-29" d="M235.13,589.11c1.11.36,1.09.78,0,1.27.45.87.94,2.31.4,2.65-3.68,2.3-32.19,17.29-34.1,17.4l-3.11-1.01h-1.27l-4.13.12s-13.11-9.64-39.32-28.92l.3-2.93c10.09-7.8,20.17-15.31,30.46-22.85,9.28,8.5,20.38,16.07,30.82,23.13,6,4.06,12.89,9.92,19.95,11.14Z"/>
    <path class="cls-14" d="M287.17,538.34c1.12.24,1.07.67,0,1.27.8.76,1.93,1.89,1.61,2.69-1.97,4.87-16.65,19.41-21.3,23.18l-3.16-.49c-15.15-7.4-31.37-17.74-44.6-28.38-1.67-1.35-3.82-1.77-3.63-4.62,10.38-7.43,21.34-14.2,31.73-21.58,11.87,6.73,24.84,14.99,36.63,22.98.68.46,1.14,1.26,1.61,2.11s.81,1.84,1.1,2.83Z"/>
    <path class="cls-39" d="M467.4,570.08c6.7,2.09,14.65,7.83,21.62,10.75,28.21,11.8,68.22,21.7,98.74,23.23,2.45.12,4.29.87,5.3-2.25,3.56-3.9,8.61,1.21,2.54,3.81-22.51,6.67-39.41,5.52-62.62,2.33-9.75-1.34-21.83-5.34-30.87-6.07-2.44-.2-3.44.16-5.52,1.2-.16-.72.25-2.21,0-2.54-3.57-.54-6.11-1.81-7.62-3.81-11.79-.57-57.11-23.66-59.39-32.88-.21-.85-.26-1.75-.26-2.66l4.15-1.48c11.92,1.78,23.23,5.23,33.93,10.36Z"/>
    <path class="cls-67" d="M524.52,544.69l34.85,2.59c21.11-1.31,44.18,2.14,64.87-1.3,2.38-.4,5.08,1.44,4.36-2.56,3.24,16.37,7.13,19.72,0,36.81-28.41-28.5-77.87-3.4-104.08-35.54Z"/>
    <path class="cls-53" d="M372.21,746.5c-12.06-2.28-20.28-4.86-31.73-8.88-20.09-10.06-31.32-32.14-36.22-53.32-1.46-6.33-2.84-14.28-.59-20.3,3.28-4.29,6.56-7.54,10.15-11.42,12.21,36.01,31.63,67.05,58.39,93.92Z"/>
    <path class="cls-71" d="M624.79,403.8c1.9-2.19,8.54-1.64,8.25,2.54.27-.99.66-2.44,1.45-2.54,3.91-.5,25.17-.7,28.47,0l1.81,2.54c-.12-4.65,13.92-7.42,12.06-1.27-8.45,3.76-18.25,5.32-23.91,13.53-1.49,2.17-2.41,6.82-4.01,8.05-.27.21-5,1.93-6.35,2.54-3.11.27-6.08.69-8.88,1.27-29.38,6.09-45.36-3.79-59.65-27.92.25-1,.66-2.5,1.43-2.57,6.39-.57,31.01-1.86,35.88-.79,4.29,2.39,8.78,3.93,13.46,4.63Z"/>
    <path class="cls-32" d="M255.44,90.3c3.01,22.71,10.32,44.92,19.04,66-12.59,5.46-15.94,8.27-30.46,11.42-6.61,1.95-10.04-3.23-8.88-8.88l.1-1.92c5.08-3.14,9.28-7.15,12.59-12.05.77-2.42,1.19-4.96,1.27-7.62-1.84-1.88-2.31-4.82-1.43-8.82-1.4-3.81-1.34-6.79.17-8.95-2.02-11.07-15.56-18.57-26.64-17.46l-1.28-1.58c-4.11-.2-6.08-12.01-2.54-13.96,11.46,2.62,26.3,3.42,38.08,3.81Z"/>
    <path class="cls-15" d="M197.05,609.42c-13.54,6.95-28.55,10.23-43.15,13.96-8.5-8.34-21.97-13.79-27.92-24.12,8.94-7.54,18.67-14.42,27.92-21.58l43.15,31.73Z"/>
    <path class="cls-22" d="M445.83,710.96c.34-.95,2.32-1.58,3.3-1.52,12.69,6.37,25.75,10.73,39.18,13.09l1.94,2.39c-18.4,12.4-31.3,17.5-53.31,21.58-12.95-6.62-26.96-14.45-36.81-25.39h1.27l2.22-2.42c13.03.52,25.53-2.52,37.51-9.12,1.69.05,3.46.13,4.69,1.38Z"/>
    <path class="cls-7" d="M306.21,507.88c.73,5.68-1.29,11.48-6.08,17.4-3.18,7-7.5,11.35-12.96,13.06-11.56-8.19-24.29-14.89-35.7-23.32-1.76-1.3-3.81-1.73-3.65-4.6,10.21-7.25,22.02-14.31,31.73-21.58,7.29,2.12,18.3,9.72,24.78,14.93l1.87,4.11Z"/>
    <path class="cls-32" d="M332.86,259.11c1.15,2.79.81,7.19,0,10.15-10.58-5.57-32.74-13.35-44.42-15.23-4.71-1.71-11.45-9.42-8.88-13.96,7.42-6.54,18.87-19.57,24.12-27.92,7.26,6.01,13.45,13.32,18.57,21.91,7.49,7.26,10.27,14.63,10.62,25.05Z"/>
    <path class="cls-35" d="M323.98,179.15l4.05-1.11c1.72.3,17.23,25.31,16.25,30.3l.24,4.28c-7.22,14.23-11.1,29.73-11.66,46.49-1.31-13.17-6.14-14.74-13.2-24.25-5.52-7.45-10.82-15.04-16-22.71,5.62-8.94,10.68-19.78,11.42-30.46,2.76-.21,6.43-1.38,8.88-2.54Z"/>
    <path class="cls-44" d="M356.98,410.15c.38.86.91,1.67,1.27,2.54,4.28,3.19,6.01,7.41,7.41,12.43,4.24,10.87,9.23,24.54,9.09,35.8-.47.87-1.36,2.08-1.95,1.84-10.31-4.25-31.97-15.53-41.06-21.74l-.15-2.95-2.06-2.4c2.21-5.36,3.32-10.91,3.33-16.64,1.69-6.72,3.09-14.67,2.54-21.58l2.52-1.46c7.58,3.47,13.93,8.19,19.05,14.15Z"/>
    <path class="cls-26" d="M217.36,86.49l2.54,13.96-.51,1.78c-8.11,1.37-18.49,7.46-19.79,15.99l1.49,2.87c-2.79,6.02-2.4,12.41-.75,18.72l-2.01,2.53c5.66,13.92,21.28,20.51,35.29,15.31l1.52,1.19c4.27,2.28,2.11,9.89,8.88,8.88-17.24,3.75-28.04,6.23-44.42-2.54-7.9-12.17-12.54-31.05-12.69-45.69,5.52-16.43,11.71-23.07,22.85-35.54,2.97-.86,5.97,2.16,7.62,2.54Z"/>
    <path class="cls-20" d="M473.75,684.31c.38,8.28-16.24,22.83-23.63,25.77l-4.29-.39c-6.05.39-11.88-2.29-17.5-8.03-5.74-4.42-14.94-11.68-15.5-18.62l3.51-1.64c13.44,3.77,26.67.01,38.46-6.79l3.73.82c3.52-2.02,7.11-3.4,10.15-6.35.71,3.6,3.52,11.74,5.08,15.23Z"/>
    <path class="cls-40" d="M340.48,737.62c-13.4-4.71-21.83-8.82-34.27-15.23l-5.95-5.47c-4.66-8.96-9.02-17.71-13.09-26.26,5.39-9.81,9.59-17.62,16.5-26.65,1.65,7.08,1.82,14.15,3.4,21.35,4.61,21.05,17.03,38.75,33.41,52.26Z"/>
    <path class="cls-54" d="M114.12,223.14c-12.27,12.35-37.57-.78-29.01-20.76,11.1-25.9,49.73-.1,29.01,20.76Z"/>
    <path class="cls-5" d="M490.25,724.93c-5.32.65-9.93-.87-14.93-2.21-5.71-1.53-27.91-11.76-29.5-11.75-1.11-.36-1.09-.78,0-1.27,10.91-6.29,21.03-14.72,27.92-25.39,5.51,12.37,16.01,25.13,25.36,34.9-1.78,3.93-6.75,4.29-8.86,5.71Z"/>
    <path class="cls-36" d="M595.6,605.62l1.27-2.52c-1.45.14-2.57-.87-3.81-1.29-14.97-5.1-28.94-10.89-43.15-17.77,3.91-3.71,12.22,0,15.87,0h43.15l19.67-2.54c-7.25,14.83-17.93,19.65-33,24.12Z"/>
    <path class="cls-56" d="M307.48,463.46c4.21,1.41,14.09,5.35,13.96,10.15,1.1.42,1.1.85,0,1.27.55,10.76-6.38,25.28-13.96,33-.36,1.09-.78,1.07-1.27,0-7.41-4.41-15.46-9.9-22.51-14.95-1.64-1.17-3.39-2.06-4.15-4.09,9.86-7.39,19.81-16.15,27.92-25.39Z"/>
    <path class="cls-51" d="M156.44,648.77c-9.39,0-19.22.21-28.54,1.28-7.36.85-37.88,8.37-41.61,7.41-12.18-3.13,1.51-20.99,5.46-25.79,2.32-2.82,5.42-4.71,7.58-7.02-.11,2.88,1.76,3.39,3.41,4.84,6.45,5.69,22.35,19.55,30.23,19.38,9.51-.21,13.1-1.5,23.48-.1Z"/>
    <path class="cls-26" d="M709.83,383.5c-9.33,13.79-18.8,15.26-33,21.58-2.36-2.91-9.41,1.27-12.06,1.27h-31.73c-.91,0-5.88-2.16-8.25-2.54-1.88.19-3.15-.23-3.81-1.27,15.51-3.49,31.39-4.98,46.98-8.24,14.19-2.97,27.84-7.39,41.87-10.8Z"/>
    <path class="cls-45" d="M626.06,115.68c13.01,14.24,24.94,42.24,29.19,60.92-3.03-1.48-4.6-4.3-6.38-6.95-13.95-20.78-19.55-41.7-41.85-56.51-.63-.91-.78-1.85-.33-2.81l9.21-3.53c2.92,2.2,7.78,6.28,10.15,8.88Z"/>
    <path class="cls-81" d="M124.38,94.43c24.63-6.33,24.91,30.23,3.84,27.35-15.55-2.12-16.02-24.22-3.84-27.35Z"/>
    <path class="cls-81" d="M104.06,442.17c19.08-3.93,23.41,24.49,5.73,27.37-18.8,3.06-23.12-23.79-5.73-27.37Z"/>
    <path class="cls-81" d="M12.72,305.04c16.17-1.85,20.31,24.06,5.74,27.41-22.25,5.13-24.66-25.25-5.74-27.41Z"/>
    <path class="cls-19" d="M331.59,438.07c1.81,11.38-2.79,26.7-10.15,35.54-3.87-3.13-12.59-5.03-13.96-10.15,10.86-12.35,21.33-28.3,25.39-44.42,2.81,4.97-.1,13.47-1.27,19.04Z"/>
    <path class="cls-50" d="M356.98,410.15l-21.58-12.69c-.42-5.24-3.33-14.24-5.73-19.02s-6.35-7.86-8.23-12.72c19.92,14.99,25.34,21.19,35.54,44.42Z"/>
    <path class="cls-38" d="M306.21,722.39c-10.89-5.62-17.77-9.96-27.92-16.5,3.15-4.88,6.09-10.15,8.88-15.23,3.54-2.42,1.9-.91,3.14,1.24,5.72,9.86,9.76,20.83,15.89,30.49Z"/>
    <path class="cls-3" d="M199.59,165.18c-19.08-10.21-18.97-27.01-12.69-45.69l12.69,45.69Z"/>
    <path class="cls-43" d="M34.2,232.09c-6.4,7.78-18.87-1.48-12.9-9.75,6.6-9.13,19.09,2.22,12.9,9.75Z"/>
    <path class="cls-48" d="M63.43,145.06c10.23-2.81,14.48,14.81,3.35,15.99-10.06,1.06-12.71-13.42-3.35-15.99Z"/>
    <path class="cls-66" d="M30.45,414.16c11.53-2.09,12.62,15.55,2,15.97-8.67.34-11.48-14.25-2-15.97Z"/>
    <path class="cls-25" d="M288.44,254.03c-8.22-1.32-18.27-1.37-26.65-1.27,5.83-4.25,12.34-7.91,17.77-12.69l8.88,13.96Z"/>
    <path class="cls-61" d="M259.25,686.85c-.66,1.37-.7,3.55-1.27,5.08-11.47-7.61-29.48-16.35-39.35-24.12,2.47-2.1,3.23-.49,5.21.44,11.8,5.6,22.88,14.3,35.41,18.6Z"/>
    <path class="cls-33" d="M440.75,331.46c3.43-1.07,4.93.96,2.54,3.81,6.2,7.07,12.67,13.92,19.4,20.55,17,8.92,31.87,19.88,44.61,32.87l-.55,3.69c.45,1.23.64,2.94-.25,3.33-7.72,3.36-80.06-24.63-91.43-31.75-2.42-1.51-4.38-3.54-6.05-5.84-14.53-33.47-42.68-69.82-74.89-87.58-.85-2.39-1.05-17.23-.38-18.08.37-.46.97-.74,1.65-.96l3.46,1.02c28.31,32.54,62.27,58.86,101.88,78.95Z"/>
    <path class="cls-9" d="M506.75,392.38c3.66-.45,4.44.63,2.54,3.81,3.32,6.66,5.1,12.99,6.35,20.31l.44,16.11c-9.45.88-19.17-.3-29.16-3.54-12.01-2.77-53.36-14.47-60.37-21.23-.86-.83-1.59-1.78-2.29-2.76-4.15-15.96-8.66-31.84-15.23-46.96,29.88,15.13,59.23,26.61,91.89,34.42,1.7.41,4.76,2.19,5.84-.15Z"/>
    <path class="cls-2" d="M424.25,405.07c29.22,11.99,59.85,22.94,91.39,26.66v-15.24c1.07,6.34.93,10.13,1.27,16.5,0,.14-1.09.79-1,2.72.49,10.83,5.26,25.77,12.43,34.09-1.97,2.07-6.7.19-9.29-.24-28.79-4.76-57.06-11.95-84.64-21.34-3.77-14.31-6.44-28.87-10.15-43.15Z"/>
    <path class="cls-58" d="M397.6,472.34c11.54,39.41,34.26,76.05,69.81,97.73-11.43-3.56-26.04-5.29-38.08-8.88-2.45,2.41-3.1,2.11-2.54-1.27-10.19-5.24-34.56-38.03-34.65-47.62,0-1.05.16-2.1.38-3.15-8.44-9.57-14.05-26.53-17.37-39.24l.87-5.19c4.5-5.01,18.26,2.39,21.58,7.62Z"/>
    <path class="cls-2" d="M505.48,504.07c.27.45,1.02.8,1.27,1.27,6,11.26,8.43,26.39,15.23,36.81-1.29,2.5-4.42.89-6.34.65-9.46-1.17-18.77-3.21-28.12-4.92-1.85-.34-4.95-1.94-6.15.46-14.42-14.08-24.71-28.51-33-46.96.08-1.06.65-2.44,1.38-2.29,11.24,2.22,22.61,4.83,33.8,7.51,8.42.8,15.73,3.3,21.93,7.47Z"/>
    <path class="cls-28" d="M505.48,504.07l-57.12-12.69c-6.29-13.99-8.79-24.92-12.69-39.35,22.37,19.75,53.89,25.01,69.81,52.04Z"/>
    <path class="cls-80" d="M387.44,427.92c3.74,14.55,5.96,30.1,10.15,44.42-7.05-2.4-13.94-7.36-21.58-7.62-3.55-.41-3.85-1.35-1.27-3.81-5.75-15.99-9.92-32.5-16.5-48.23l29.19,15.23Z"/>
    <path class="cls-18" d="M234.84,279.74c-40.79,5.05-24.22,68.77,14.57,51.38,27.61-12.38,15.02-55.05-14.57-51.38ZM222.88,320.85c-18.04-19.21,10.2-46.38,28.81-29.44,21.07,19.19-10.38,49.07-28.81,29.44Z"/>
    <path class="cls-9" d="M358.25,223.57l-.64,3.14c-9.09,5.04-16.16,13.61-19.27,23.55l-2.94,1.24c-1.46,6.57-1.57,12.1-1.27,19.04-.49-.27-.85-1.05-1.27-1.27-.23-3.34.33-6.84,0-10.15-1.96-18.02.99-35.66,11.42-50.77.36-1.11.78-1.09,1.27,0,4.41-1.18,14.28,10.94,12.69,15.23Z"/>
    <path class="cls-82" d="M549.91,82.68c12.2-.29,12.47,12.18,1.27,12.69-11.4-2.04-22.99-2.89-34.28-5.7-13.39-3.33-24.38-8.97-36.78-14.63-.51-1.97,1.93-.85,2.57-2.07,1.25-2.38,1.06-5.65,2.49-8.07,22.69,11.96,40.49,13.48,64.73,17.77Z"/>
    <path class="cls-8" d="M615.91,106.8c-.04,5.25-5.88,3.85-8.88,6.35-16.81-11.16-36.38-14.29-55.85-17.77,4.71.17,6.47-10.13,5.08-11.42-.53-.49-5.54,1.05-6.35-1.27,25.52,4.51,44.74,8.09,66,24.12Z"/>
    <path class="cls-34" d="M376.02,189.3c.31-1.13.74-1.1,1.27,0l3.34,1.25c29.51,41.71,76.87,70.12,123.59,88.86l3.75,1.12c4.96,8.14,9.21,16.65,12.75,25.54,3.47,6.72,3.95,11.72,6.35,17.77-2.29.79-4.71,1.5-7.15,1.18-20.76-2.78-68.27-21.09-84.79-33.64-1.96-1.48-3.39-3.44-4.52-5.62-1.91,1.58-2.58.86-1.27-1.27l-3.39-4.22c-6.23-29.47-27.4-66.41-62.82-55.27l-3.6-1.44c-.29,1.15-.71,1.12-1.27,0l-12.69-15.23c-2.2-5.3,7.52-11.72,12.06-14.58,4.79-3.01,13.83-8.56,18.4-4.46Z"/>
    <path class="cls-9" d="M527.06,323.84c5.08,12.81,9.85,26.54,15.23,39.35l-3.4,1.31c-31.65-2.1-62.37-13.75-90.96-24.77l-4.64-4.47c-.59-1.26-2.08-2.61-2.54-3.81l-3.62-2.59c-3.49-12.84-6.24-25.85-8.24-39.04l1.71-4.06c29.74,17.94,62.1,31.82,96.46,38.08Z"/>
    <path class="cls-34" d="M392.52,45.87c4.09-.71,2.18,2.07,2.48,4.44,4.13,32.18,14.95,59.51,31.79,86.94-16.01-4.34-35.67-4.92-52.04-3.81-.58-2.15.55-3.3,3.37-3.46-9.88-21.43-16.14-44.2-21.19-67.2l1.31-5.5c-2.06-2.87-.56-4.32,2.54-2.54,9.62-4.09,21.38-7.52,31.73-8.88Z"/>
    <path class="cls-74" d="M542.29,363.19c5.09,12.12,12.04,27.02,19.04,38.08l-52.04-5.08c-.62-1.24-1.74-2.58-2.54-3.81-16.96-26.26-47.51-23.25-63.46-57.12l33.61,12.72c21.29,6.78,43.07,12.83,65.39,15.21Z"/>
    <path class="cls-27" d="M358.25,57.3c6,25.38,11.42,51.18,24.1,74.26l-7.6,1.89c-10.15.69-20.49,1.88-30.46,3.81-.98.2-2.53.33-2.78-.33-6.92-18.65-14.04-40.48-19.47-59.63l1.94-2.24c3.67-5.54,26.03-18.59,31.39-18.3.97.05,1.93.27,2.88.54Z"/>
    <path class="cls-76" d="M398.87,158.84l5.41,3.44c21.31,30.49,51.11,53.99,84.19,70.64l4.33,4.61c10.73,22.17,20.59,45.02,27.92,68.54-4.36-8.45-11.26-18.5-16.5-26.65l-2.35-.52c-29.2-39.86-65.94-87.97-120.66-87.32l-3.91-2.27c-.42.04-.85-.05-1.27,0-5.46-.96-10.83-9.57-13.88-14.68-3.49-3.98-4.37-7.55-2.62-10.7,12.77-3.5,26.1-5.47,39.35-5.08Z"/>
    <path class="cls-73" d="M344.29,137.26c-11.79,2.28-24.38,5.69-35.54,10.15l-19.04-58.39c.15-.69.35-1.35.72-1.9.92-1.37,27.01-12.25,30.29-13.28l3.26,1.21,20.31,62.19Z"/>
    <path class="cls-34" d="M492.79,237.53c-37.62-17.18-71.1-44.01-93.92-78.69,49.3,1.46,74.55,38.67,93.92,78.69Z"/>
    <path class="cls-39" d="M567.68,293.38c-.39.95-.97,2.35-1.75,2.34-3.04-.04-24.6-2.52-26.41-3.3l-2.3-2.85c-8.35-28.57-18.34-60.36-33-86.31.45-.89,1.24-2.18,1.92-2.01,3.24.82,21.91,7.18,23.89,8.55,4.89,3.36,11.55,16.38,14.37,21.92,3.85,7.56,7.26,15.3,10.61,23.11,1.9,4.43,14.06,34.57,13.72,37.06-.07.53-.51,1.02-1.05,1.49Z"/>
    <path class="cls-58" d="M535.94,214.68c8.31,12.66,15.77,27.9,21.58,41.89,4.92,11.86,10.26,27.04,13.96,39.35,3.88,12.89,6.45,26.35,10.15,39.35.64,2.26.61,5.38,1.27,7.62-.28,14.47-9.24-5.63-5.08-12.69-6.73-10.24-10.46-24.56-10.15-36.81-4.26-13.5-27.39-75.87-37.75-80.92l-25.71-9.2c-11.9-21.08-28.79-39.1-48.23-53.31,34.12,15.59,59,32.81,79.96,64.73Z"/>
    <path class="cls-23" d="M609.56,394.92c3.25,2.8,7.52,5.83,11.42,7.62,1.24.57,2.41,1.17,3.81,1.27-1.57-.25-6.02,1.45-9.67-2.17l-41.1.9c-8.12-13.71-10.21-22.27-15.23-36.81l1.95-2.41c5.66-.7,24.71-.99,28.52,2.53,4.58,10.54,10.55,20.01,17.9,28.43l2.4.65Z"/>
    <path class="cls-24" d="M577.83,330.19c1.51,5.8,3,11.8,3.82,17.76l1.26-5.07c2.38,8.08,5.62,16.33,8.88,24.12,4.7,11.2,8.36,19.83,17.77,27.92-1.59,3.2-5.38-2.14-6.3-3.22-3.72-4.31-14.08-23.3-15.29-24.05-5.8-3.57-22.08-1.15-29.17-1.92-4.64-13.45-7.52-24.68-11.42-38.08.35-.96.86-2.37,1.65-2.41,3.58-.19,24.3,1.38,27.23,2.27l1.58,2.68Z"/>
    <path class="cls-73" d="M376.02,189.3c-11.28,1.48-24.02,9.79-30.46,19.04h-1.27c-5.07-8.94-10.98-17.4-16.5-26.08-1.05-1.65-1.08-3.71-3.8-3.11,11.86-5.6,22.64-11.69,35.54-15.23,3.37,9.4,10.84,17.27,16.5,25.39Z"/>
    <path class="cls-75" d="M567.68,293.38c3.8,12.04,6.98,24.58,10.15,36.81l-30.46-2.54c-3.68-12.62-6.49-25.55-10.15-38.08l30.46,3.81Z"/>
    <path class="cls-10" d="M642.56,429.19c-2.15.98-5.27,1.79-7.62,2.54l-1.27-1.27c2.09-.43,6.75-4.39,8.88-1.27Z"/>
    <path class="cls-65" d="M488.98,102.99c2.22,1.08,5.59,3.1,7.62,3.81,31.92,30.49,73.92,47.58,119.03,36.75l5.36,1.33c7.32,9.55,14.45,20.68,19.04,31.73-89.43,33.15-193.93-27.35-206.89-121.85,22.27,13.39,30.79,36.06,55.85,48.23Z"/>
    <path class="cls-53" d="M426.79,559.92c.85.25,1.69,1.01,2.54,1.27,16.54,16.94,38.8,25.54,59.65,35.54,1.24,1.25.39,1.68-2.54,1.27-31.74-7.66-70.24-14.65-102.81-12.69l-8.3-1.25c-29.36-13.76-58.64-27.59-87.87-41.49l-.3-2.95c.1-.39-.07-.86,0-1.27,7.92-8.58,14.53-19.66,19.04-30.46.31.19.96-.18,1.27,0l5.2,1.07c34.01,17.44,68.51,34.37,105.24,45.57l8.88,5.4Z"/>
    <path class="cls-4" d="M378.56,614.5l2.86.63c5.01,18.2,11.75,35.59,19.99,52.68,2.41.53,4.32,2.52,5.72,5.95,4.63,3.19,6.53,6.29,5.71,9.28,9.54,10.51,19.8,20.64,33,26.65v1.27c-3.84,0-19.9,8.77-27.62,9.83-5,.68-11.74.66-16.81.33-5.62-1.14-8.96-3.93-13.09-7.43-12.26-10.38-21.17-25.53-28.71-39.28-4.32-7.87-12.15-22.28-10.92-30.91.05-.38.34-.73.68-1.07-.56-8.98,3.25-16.59,11.42-22.85,7.16-2.71,10.42-3.43,17.77-5.08Z"/>
    <path class="cls-21" d="M383.63,585.31c-18.84,1.13-39.55,7.14-55.85,16.5l-3.69.83c-19.9-11.13-39.79-22.26-59.69-33.41l-.09-2.96c.21-.2-.21-1.06,0-1.27,4.63-4.5,21.56-20.19,22.85-25.39l96.46,45.69Z"/>
    <path class="cls-12" d="M235.13,590.38l7.12,1.71c18.49,11.06,37.01,21.6,55.56,31.64l-1.75,3.46c-6.02,6.65-15.66,20.16-20.31,27.92-26.76-13.39-53.49-27.7-77.42-45.69l36.81-19.04Z"/>
    <path class="cls-46" d="M264.32,566.27l63.46,35.54c-10.18,5.84-23.88,16.71-31.73,25.39.24-3.46-2.06-3.13-4.06-4.19-19.28-10.24-38.88-20.21-56.86-32.62v-1.27c9.96-6.51,20.59-14.63,29.19-22.85Z"/>
    <path class="cls-20" d="M421.71,610.69c-1.19,1.74-2.53,3.4-3.81,5.08l-.83,5.41c-8.94,12.58-16.83,27.76-13.79,43.62l-1.88,3.01c-6.49-5.96-9.01-15.36-13.31-22.87l-9.54-30.44c16.31-3.65,26.22-4.36,43.15-3.81Z"/>
    <path class="cls-37" d="M360.79,619.58c2.43.5-.72,3.58-1.32,4.4-3.38,4.66-10.3,12.69-10.11,18.45-.36,1.11-.78,1.09-1.27,0,.43-4.6-.54-11.78-3.81-15.23,6-3.44,10.14-5.21,16.5-7.62Z"/>
    <path class="cls-52" d="M496.6,600.54c-3.82.83-7.23-1.83-10.15-2.54l2.54-1.27c2.14,1.02,6.51,2.33,7.62,3.81Z"/>
    <path class="cls-67" d="M612.1,476.15c-23.33,5.65-61.69,13.3-81.23-3.81l81.23,3.81Z"/>
    <path class="cls-69" d="M360.79,54.76c-.76.32-1.74,2.18-2.54,2.54-12.33,5.58-22.54,11.93-34.27,17.77-9.68,4.82-23.87,11.75-34.27,13.96-9.05,1.93-18.69,1.3-27.92,1.27,6.89-2.04,14.31-1.63,21.39-3.36,3.94-.96,8.38-2.73,12.06-4.44,21.23-9.84,41.19-27.42,62.38-37.89l3.16,10.15Z"/>
    <path class="cls-32" d="M401.4,721.12c-.42-.03-.85.04-1.27,0-34.89-3.26-61.18-30.3-55.52-66.31.64-4.1,3.13-8.61,3.49-12.38h1.27c.25,7.52,13.93,34.35,18.5,41.79,8.49,13.81,20.29,27.73,33.54,36.91Z"/>
    <path class="cls-30" d="M213.55,660.19c-1.18,2.58-5.36-.71-6.73-1.52-13.56-8.03-26.11-17.35-38.96-26.4,8.1,2,16.84,7.63,24.01,12.17s15.27,9.84,21.68,15.76Z"/>
    <path class="cls-17" d="M620.98,144.88c-37.72,9.7-75.99,2.9-107.04-20.52-5.95-4.49-14.21-10.85-17.35-17.55,47.56,16.55,85.95-12.11,124.39,38.08Z"/>
    <path class="cls-70" d="M458.52,675.42c-15.14,8.69-28.14,13.05-45.69,7.62-4.96-5.46-9.12-6.98-11.42-15.23-5.25-18.77,5.57-37.68,16.5-52.04,3.79,24.09,20.07,46.79,40.62,59.65Z"/>
    <path class="cls-31" d="M247.83,119.48c-6.23-22.55-40.99-23.55-48.24-1.25-4.34,9.01-3.56,14.7-1.27,24.1,8.25,21.28,40.94,23.77,48.24,1.27,2.35-.97,3.32-3.96,2.54-6.34,1.74-7.27,1.59-10.79-1.27-17.79ZM231.3,149.3c-31.02,11.87-39.79-38.67-8.25-39.3,22.31-.44,29.12,31.3,8.25,39.3Z"/>
    <path class="cls-42" d="M246.55,143.61c1.7-1.67,2.26-.96,1.27,1.27-2.77,6.1-6.36,11.14-12.69,13.96-14.86,6.62-32.9-.49-36.81-16.5,10.82,18.45,37.5,21.62,48.23,1.27Z"/>
    <path class="cls-34" d="M219.9,100.45c11.92-1.36,21.02,4.2,27.19,14.06.74,1.18,3.36,4.22.73,4.98-8.47-20.62-38.65-21.2-48.23-1.27-2.64-.78,0-3.78.74-4.98,3.87-6.39,12.03-11.93,19.57-12.79Z"/>
    <path class="cls-68" d="M247.82,144.88l-1.27-1.27c1.19-2.25,1.93-3.81,2.54-6.35,2.74,2.78-.18,5.21-1.27,7.62Z"/>
    <path class="cls-22" d="M374.75,460.92c.46,1.27.82,2.55,1.27,3.81,5.11,14.31,10.14,30.78,16.5,44.42l-2.16,1.78c-22.88-11.03-45.76-22.06-68.65-33.1l-.27-2.95c.13-.38-.13-.89,0-1.27,4-11.71,7.61-23.4,10.15-35.54l43.15,22.85Z"/>
    <path class="cls-13" d="M392.52,509.15c8.59,18.43,20.73,35.69,34.27,50.77-41.99-12.55-81.61-29.85-119.31-52.04,4.51-11.04,10-21.72,13.96-33l71.08,34.27Z"/>
    <path class="cls-6" d="M429.33,284.49c.5.3.84,1.01,1.27,1.27,3.36,14.58,4.79,31.8,10.15,45.69-1.1,1.66-6.19-1.4-7.46-2.06-27.63-14.17-57.07-34.81-79.51-56.3-6.63-6.35-14.18-13.38-18.37-21.61,2.52-11.35,12.14-23.1,22.85-27.92.34-.15.89.14,1.27,0l2.81,1.3c16.28,22.95,40.73,39.33,64.02,54.77l2.97,4.85Z"/>
    <path class="cls-11" d="M504.21,279.42c-1.57,2.11-6.34-.54-8.27-1.25-40.53-15.01-79.16-41.34-107.88-73.61-3.85-4.33-8.78-9.9-10.77-15.25,54.69-5.1,100.46,48.92,126.93,90.12Z"/>
    <path class="cls-1" d="M429.33,284.49c-21.61-13.3-51.94-35-67.28-55.21-1.35-1.78-2.39-3.41-2.53-5.71,40.58-15.24,64.14,27.68,69.81,60.92Z"/>
  </g>
  <g>
    <g>
      <path class="cls-63" d="M902.69,260.68h-57.26l-59.68,188.91v20.99h43.79l6.14-23.73.54-2.05,3.81-14.7h.03l16.86-64.47,15.81-60.87h2.69l15.81,60.87,16.86,64.47h.03l3.81,14.7.54,2.05,6.14,23.73h44.09v-20.99l-59.98-188.91Z"/>
      <path class="cls-63" d="M1034.33,470.58h-44.98v-209.9h44.98v209.9Z"/>
      <path class="cls-63" d="M1186.65,473.58c-13.4,0-24.24-4.15-32.54-12.44-8.3-8.29-12.44-19.14-12.44-32.53v-23.99c0-12.99,3.94-23.24,11.84-30.74,7.89-7.5,17.24-11.54,28.04-12.14v-2.1c-4.6-3.2-8.75-8.14-12.44-14.84-3.7-6.69-5.55-13.94-5.55-21.74v-17.39c0-13.59,4.15-24.49,12.44-32.68,8.29-8.19,19.14-12.29,32.53-12.29h74.06v27.89l-13.19,13.19h-45.58c-5,0-8.8,1.3-11.39,3.9-2.6,2.6-3.9,6.3-3.9,11.09v2.4c0,2.8.55,5.35,1.65,7.65,1.1,2.3,3.25,5.35,6.45,9.15l97.75,112.75v21.89h-43.78l-13.19-15.89h-1.8c-2.8,4.8-7.6,9.15-14.39,13.04-6.8,3.9-14.69,5.85-23.69,5.85h-30.89ZM1216.04,433.69c4.6,0,8.14-1.25,10.64-3.75,2.5-2.5,3.85-5.35,4.05-8.55l-25.19-29.39h-4.2c-9.8,0-14.69,5.2-14.69,15.59v11.69c0,4.4,1.25,7.9,3.75,10.5,2.5,2.6,5.95,3.9,10.35,3.9h15.29Z"/>
      <path class="cls-63" d="M1440.93,470.58h-47.38v-21.89l19.49-188.01h50.38l46.48,119.04h2.1l46.48-119.04h50.38l19.49,188.01v21.89h-47.38l-8.1-135.84h-1.8l-41.08,105.85h-38.08l-40.78-105.85h-2.1l-8.1,135.84Z"/>
      <path class="cls-63" d="M1798.36,470.58h-136.13v-209.9h44.98v168.82h91.16v41.08Z"/>
    </g>
    <g>
      <path class="cls-41" d="M786.83,523.8c0-9.73,6.48-16.21,16.75-16.21h23.77v3.24l-1.08,1.08h-22.69c-7.56,0-11.89,4.32-11.89,11.89v6.48c0,5.4,3.24,8.54,7.56,9.73l18.37,4.86c7.56,2.05,11.35,5.94,11.35,14.05v8.11c0,9.72-6.48,16.21-16.75,16.21h-26.48v-4.32h26.48c7.56,0,11.89-4.32,11.89-11.89v-8.11c0-5.4-3.24-8.54-7.56-9.72l-18.37-4.86c-7.56-2.05-11.35-5.94-11.35-14.05v-6.48Z"/>
      <path class="cls-41" d="M859.77,584.32c-10.27,0-16.75-6.48-16.75-16.21v-45.39c0-9.72,6.48-16.21,16.75-16.21h14.05c10.27,0,16.75,6.48,16.75,16.21v45.39c0,9.73-6.48,16.21-16.75,16.21h-14.05ZM873.82,580c7.56,0,11.89-4.32,11.89-11.89v-45.39c0-7.56-4.32-11.89-11.89-11.89h-14.05c-7.56,0-11.89,4.32-11.89,11.89v45.39c0,7.56,4.32,11.89,11.89,11.89h14.05Z"/>
      <path class="cls-41" d="M924.61,511.92c-7.56,0-11.89,4.32-11.89,11.89v43.23c0,7.56,4.32,11.89,11.89,11.89h24.85v4.32h-24.85c-10.27,0-16.75-6.48-16.75-16.21v-43.23c0-9.73,6.48-16.21,16.75-16.21h24.85v3.24l-1.08,1.08h-23.77Z"/>
      <path class="cls-41" d="M964.06,583.24v-75.64h4.86v75.64h-4.86Z"/>
      <path class="cls-41" d="M1031.06,510.83l-1.08,1.08h-34.58v30.26h27.02v4.32h-27.02v32.42h35.66v4.32h-40.52v-75.64h40.52v3.24Z"/>
      <path class="cls-41" d="M1035.38,507.59h47.01v3.24l-1.08,1.08h-19.99v71.32h-4.86v-71.32h-21.07v-4.32Z"/>
      <path class="cls-41" d="M1089.95,507.59l19.45,44.85h.54l19.45-44.85h4.86v2.16l-22.15,49.17v24.31h-4.86v-24.31l-22.15-49.17v-2.16h4.86Z"/>
    </g>
    <g>
      <path class="cls-41" d="M805.64,225.37l6.63,10.78v1.66h-3.73l-6.22-12.43h-3.73c-7.88,0-12.85-4.97-12.85-12.43v-34.82c0-7.46,4.97-12.43,12.85-12.43h10.78c7.88,0,12.85,4.97,12.85,12.43v34.82c0,7.46-4.97,12.43-12.85,12.43h-3.73ZM809.37,222.05c5.8,0,9.12-3.32,9.12-9.12v-34.82c0-5.8-3.32-9.12-9.12-9.12h-10.78c-5.8,0-9.12,3.32-9.12,9.12v34.82c0,5.8,3.32,9.12,9.12,9.12h10.78Z"/>
      <path class="cls-41" d="M840.87,166.51v46.42c0,5.8,3.32,9.12,9.12,9.12h8.29c5.8,0,9.12-3.32,9.12-9.12v-46.42h3.73v46.42c0,7.46-4.97,12.43-12.85,12.43h-8.29c-7.88,0-12.85-4.97-12.85-12.43v-46.42h3.73Z"/>
      <path class="cls-41" d="M880.25,166.51h36.06v2.49l-.83.83h-15.34v54.71h-3.73v-54.71h-16.16v-3.32Z"/>
    </g>
  </g>
</svg>