<svg xmlns="http://www.w3.org/2000/svg" xmlns:xlink="http://www.w3.org/1999/xlink" width="500" zoomAndPan="magnify" viewBox="0 0 375 374.999991" height="500" preserveAspectRatio="xMidYMid meet" version="1.0"><defs><clipPath id="110aa1cf25"><path d="M 304 173 L 366.5 173 L 366.5 202 L 304 202 Z M 304 173 " clip-rule="nonzero"/></clipPath><clipPath id="6b05303cc1"><path d="M 8.75 152 L 23 152 L 23 167 L 8.75 167 Z M 8.75 152 " clip-rule="nonzero"/></clipPath></defs><path fill="#fefefe" d="M 305.289062 300.824219 C 299.214844 296.617188 290.957031 293.285156 283.707031 291.945312 L 281.925781 289.664062 C 271.207031 284.421875 260.9375 278.175781 252.203125 269.992188 L 249.445312 269.121094 L 248.785156 266.667969 C 243.152344 260.957031 238.476562 254.363281 235.019531 247.117188 L 232.941406 245.652344 C 233.234375 243.054688 232.625 240.300781 231.113281 237.398438 C 230.296875 233.152344 228.792969 229.351562 226.589844 225.992188 C 227.566406 225.527344 227.359375 224.894531 225.953125 224.097656 C 226.207031 217.0625 224.503906 208.523438 220.878906 202.535156 C 221.257812 198.328125 220.472656 194.003906 218.511719 189.570312 C 217.671875 185.300781 215.921875 181.800781 213.261719 179.066406 C 213.335938 175.679688 212.101562 172.285156 209.554688 168.894531 C 206.332031 161.222656 184.273438 134.972656 177.15625 135.097656 C 176.707031 135.105469 176.257812 135.191406 175.816406 135.308594 C 175.621094 134.453125 175.414062 134.242188 175.183594 134.671875 L 174.449219 132.886719 C 167.953125 129.914062 161.117188 127.496094 154.128906 125.984375 L 152.96875 127.066406 C 149.527344 124.234375 143.667969 124.800781 139.640625 126.433594 C 129.121094 126.558594 117.816406 128.996094 109.800781 136.261719 C 94.25 150.351562 100.679688 177.9375 124.011719 175.828125 C 130.464844 175.242188 137.226562 172.425781 143.441406 170.828125 C 148.710938 170.621094 153.976562 170.378906 159.238281 170.09375 C 186.824219 170.566406 195.539062 187.679688 200.941406 212.351562 L 202.46875 213.960938 C 201.722656 220.714844 204.238281 228.601562 206.363281 235.101562 L 207.539062 236.152344 C 207.351562 236.636719 207.183594 237.113281 207.097656 237.605469 C 206.511719 241.007812 212.984375 253.847656 215.09375 257.605469 C 221.28125 268.621094 230.398438 280.390625 242.449219 284.984375 L 242.914062 286.496094 C 259.453125 295.363281 280.167969 301.769531 299.179688 303 C 301.128906 303.125 306.820312 303.191406 305.277344 300.839844 Z M 134.597656 145.734375 C 145.132812 155.324219 129.40625 170.253906 120.191406 160.445312 C 111.171875 150.847656 125.292969 137.269531 134.597656 145.734375 Z M 134.597656 145.734375 " fill-opacity="1" fill-rule="nonzero"/><path fill="#fefefe" d="M 160.457031 197.898438 C 155.960938 186.351562 138.058594 186.160156 133.921875 198.085938 L 85.125 183.4375 C 85.667969 178.496094 82.894531 174.449219 78.351562 172.742188 C 78.945312 168.714844 80.429688 141.765625 81.875 140.671875 C 83.601562 139.363281 86.019531 140.257812 88.515625 136.527344 C 90.722656 133.222656 89.601562 131.28125 90.769531 127.996094 L 131.832031 108.132812 C 132.925781 108.03125 134.460938 110.363281 135.621094 111.097656 C 146.910156 118.257812 159.476562 105.378906 152.230469 94.5 C 146.757812 86.28125 134.953125 87.929688 131.027344 96.640625 L 94.617188 87.710938 C 94.9375 85.128906 93.667969 81.53125 91.832031 79.707031 C 81.566406 69.472656 66.515625 89.945312 82.574219 96.398438 L 79.710938 121.386719 C 74.894531 122.359375 72.625 125.414062 70.6875 129.621094 C 68.285156 129.203125 66.105469 130.117188 63.835938 130.253906 C 61.101562 130.421875 51.410156 130.746094 49.339844 130.242188 C 48.605469 130.054688 48.164062 127.933594 47.425781 127.253906 C 41.621094 121.882812 32.859375 132.453125 40.839844 136.695312 C 46.070312 139.480469 47.296875 134.101562 52.457031 133.472656 C 54.875 133.179688 69.074219 132.964844 70.691406 133.5 C 71.769531 133.851562 74.75 140.8125 78.015625 140.449219 L 74.832031 172.636719 C 70.050781 171.375 66.707031 179.851562 65.609375 180.226562 C 63.753906 180.859375 57.457031 180.234375 54.894531 180.300781 C 53.160156 180.351562 50.875 181.378906 49.316406 181 C 48.484375 180.792969 48.449219 176.074219 42.875 176.484375 C 35.398438 177.03125 36.457031 187.976562 43.5 187.976562 C 47.175781 187.976562 48.191406 184.445312 49.835938 184.121094 L 65.625 183.582031 C 68.011719 188.371094 70.871094 191.957031 76.734375 191.820312 L 90.632812 241.550781 C 86.804688 244.15625 84.335938 247.882812 85.351562 252.660156 C 87.746094 263.902344 106.0625 262.503906 103.964844 248.007812 C 103.804688 246.882812 102.136719 245.792969 103.417969 244.667969 L 137.417969 214.695312 C 149.496094 224.464844 166.085938 212.351562 160.457031 197.898438 Z M 85.785156 97.019531 C 86.101562 96.074219 89.972656 95.394531 91.5625 94.085938 C 92.792969 93.082031 93.203125 90.589844 95.359375 91.019531 C 99.339844 93.207031 129.03125 98.40625 130.027344 99.890625 C 130.246094 100.222656 131.042969 104.734375 130.140625 105.171875 L 90.15625 124.875 C 87.847656 125.9375 86.875 123.960938 85.285156 122.691406 C 84.734375 122.257812 83.410156 122.152344 83.230469 121.910156 C 82.492188 120.902344 86.175781 100.238281 85.785156 97.019531 Z M 133.285156 213.585938 C 122.796875 223.644531 111.691406 233.03125 100.945312 242.816406 C 98.53125 241.226562 94.359375 241.972656 93.261719 239.679688 L 80.054688 190.902344 C 82.132812 189.839844 83.476562 186.539062 85.292969 186.6875 L 131.613281 200.71875 C 133.453125 201.78125 132.398438 204.46875 132.8125 206.496094 C 133.273438 208.730469 134.792969 210.429688 135.15625 212.605469 C 134.464844 212.800781 133.816406 213.078125 133.285156 213.585938 Z M 133.285156 213.585938 " fill-opacity="1" fill-rule="nonzero"/><path fill="#fee3fa" d="M 321.785156 57.929688 C 320.09375 58.777344 316.179688 55.386719 316.710938 53.496094 L 314.429688 53.40625 C 306.648438 47.765625 297.363281 45.121094 288.007812 43.507812 C 286.964844 42.328125 285.527344 41.644531 283.703125 41.441406 L 281.648438 42.371094 C 271.480469 41.285156 261.761719 38.691406 252.503906 34.582031 L 251.339844 32.566406 C 249.414062 34.164062 245.597656 30.984375 244.992188 28.757812 L 243.003906 28.953125 C 227.089844 15.480469 213.292969 5.648438 192.09375 16.671875 C 184.183594 20.8125 176.574219 25.464844 169.261719 30.636719 C 154.0625 41.761719 137.457031 42.578125 119.429688 39.167969 L 117.429688 37.636719 C 145.65625 10.480469 193.335938 -3.300781 231.976562 0.863281 C 268.902344 4.839844 302.753906 26.253906 321.785156 57.929688 Z M 321.785156 57.929688 " fill-opacity="1" fill-rule="nonzero"/><path fill="#fef5fd" d="M 222.148438 68.714844 C 223.632812 67.734375 225.492188 67.960938 227.722656 69.394531 C 230.609375 70.476562 235.742188 72.40625 236.742188 75.054688 C 242.378906 78.039062 246.832031 81.585938 251.152344 86.230469 C 255.046875 90.417969 260.3125 96.160156 260.863281 101.691406 L 263.421875 103.730469 C 269.484375 115.765625 274.148438 128.589844 277.738281 141.578125 C 277.867188 142.058594 277.824219 142.585938 277.757812 143.140625 C 277.695312 143.695312 277.542969 144.261719 277.367188 144.816406 C 280.9375 149.9375 282.71875 157.582031 282.445312 163.839844 L 284.265625 165.570312 L 288.652344 180.378906 L 288.152344 182.867188 L 289.808594 183.789062 C 291.378906 189.214844 293.488281 194.410156 296.144531 199.375 L 295.765625 201.253906 L 297.699219 201.996094 C 303.199219 211.746094 312.480469 216.75 323.648438 214.285156 L 325.59375 215.210938 C 326.433594 215.03125 326.613281 214.996094 326.230469 215.84375 C 325.980469 216.597656 325.503906 217.210938 324.710938 217.339844 C 307.699219 220.167969 299.109375 218.214844 289.332031 202.828125 L 289.417969 200.625 L 287.503906 199.742188 C 284.398438 194.609375 281.703125 189.265625 279.417969 183.710938 L 279.898438 181.605469 C 278.878906 180.851562 278.003906 179.957031 277.398438 178.839844 C 274.890625 174.238281 272.558594 167.054688 272.285156 161.941406 C 269.867188 160.808594 268.195312 155.28125 269.109375 153.0625 C 264.238281 142.507812 259.453125 131.839844 255.273438 121.03125 L 255.148438 118.820312 L 252.375 116.074219 C 243.949219 98.804688 230.847656 81.976562 210.121094 80.867188 L 208.1875 79.496094 C 205.507812 80.753906 202.449219 81.332031 198.996094 81.21875 C 195.292969 82.257812 191.796875 82.535156 188.511719 82.035156 C 188.136719 82.71875 187.699219 83.417969 186.996094 83.808594 C 184.046875 85.453125 176.328125 88.804688 173.0625 89.9375 L 170.742188 89.644531 C 170.78125 91.796875 167.398438 92.792969 166.300781 90.914062 C 166.605469 86.554688 166.003906 77.558594 161.863281 75.058594 C 159.671875 73.449219 161.867188 71.46875 163.132812 73.789062 C 167.042969 69.953125 175.542969 67.601562 180.902344 68.71875 C 184.90625 65.894531 191.542969 65.113281 196.132812 66.816406 C 197.902344 66.859375 199.238281 66.371094 200.136719 65.351562 C 206.90625 65.285156 213.933594 65.25 220.429688 67.230469 L 222.152344 68.71875 Z M 222.148438 68.714844 " fill-opacity="1" fill-rule="nonzero"/><path fill="#fec0f8" d="M 225.316406 27.492188 L 226.867188 29.542969 C 234.648438 74.109375 283.554688 102.199219 326.203125 87.929688 L 328.757812 88.375 C 329.246094 88.214844 329.96875 87.992188 330.21875 88.289062 C 333.398438 92.171875 336.914062 98.179688 338.28125 102.960938 C 338.289062 103.378906 338.28125 103.804688 338.28125 104.230469 C 337.96875 104.703125 337.644531 105.160156 337.253906 105.554688 C 336.863281 105.949219 336.5 106.296875 336.058594 106.460938 C 317.898438 113.246094 297.972656 113.726562 279.1875 109.324219 L 276.71875 107.398438 L 275.4375 106.773438 C 265.1875 92.71875 251.519531 83.777344 236.738281 75.050781 C 232.308594 73.027344 226.761719 69.957031 222.144531 68.710938 C 216.582031 63.980469 213.210938 55.296875 210.621094 48.324219 C 207.554688 40.058594 205.171875 30.136719 205.007812 23.050781 C 206.949219 20.457031 212.804688 21.246094 215.898438 21.9375 C 218.964844 22.621094 224.589844 24.40625 225.3125 27.488281 Z M 225.316406 27.492188 " fill-opacity="1" fill-rule="nonzero"/><path fill="#fefefe" d="M 200.566406 292.582031 C 201.703125 291.550781 203.039062 290.992188 204.5625 291.160156 C 220.292969 291.621094 237.601562 292.65625 251.972656 298.925781 C 253.628906 299.011719 255.324219 299.429688 257.046875 300.195312 C 258.773438 300.246094 258.773438 300.671875 257.046875 301.464844 C 255.25 302.367188 250.847656 307.273438 249.433594 309.074219 C 248.921875 309.324219 248.402344 309.546875 247.863281 309.695312 C 246.054688 310.171875 226.09375 307.371094 222.449219 306.675781 C 221.386719 306.476562 220.464844 305.90625 219.601562 305.273438 L 217.976562 306.351562 C 211.886719 306.449219 205.792969 306.664062 199.828125 308.078125 L 198.027344 307.175781 C 197.257812 309.207031 190.902344 310.925781 189.140625 309.714844 C 187.871094 311.851562 183.21875 314.519531 180.890625 313.519531 L 180.296875 315.339844 C 175.460938 318.15625 171.316406 321.910156 167.5625 326.027344 L 165.664062 326.207031 C 165.9375 328.582031 163.003906 331.921875 160.585938 331.914062 C 159.585938 335.730469 156.640625 341.078125 154.242188 344.398438 C 153.410156 344.304688 152.761719 344.554688 152.335938 345.226562 C 152.878906 348.261719 150.785156 351.867188 147.898438 352.839844 C 144.460938 350.625 141.15625 348.121094 137.742188 345.863281 C 136.339844 344.628906 136.351562 343.445312 138.375 343.324219 L 137.863281 341.480469 C 140.066406 336.953125 142.316406 332.433594 144.8125 328.058594 L 146.625 327.476562 L 146.011719 326.046875 C 148.8125 321.640625 151.871094 317.347656 155.238281 313.355469 L 156.78125 313.527344 L 156.660156 311.796875 C 160.800781 307.578125 165.472656 303.867188 170.453125 300.683594 L 172.648438 300.84375 C 172.765625 300.410156 172.914062 299.984375 173.128906 299.605469 C 175.050781 296.203125 195.71875 290.152344 200.574219 292.601562 Z M 200.566406 292.582031 " fill-opacity="1" fill-rule="nonzero"/><path fill="#feabf6" d="M 272.917969 234.871094 C 274.515625 234.101562 274.953125 234.550781 274.1875 236.140625 C 284.109375 240.542969 294.269531 241.023438 304.867188 238.859375 L 314.804688 238.042969 C 314.644531 236.179688 321.15625 234.839844 323.21875 234.582031 L 324.324219 235.511719 C 335.78125 242.9375 323.90625 246.523438 321.785156 254.539062 C 321.289062 254.9375 320.785156 255.3125 320.234375 255.601562 C 314.699219 258.558594 291.070312 256.847656 283.515625 256.222656 C 277.429688 255.714844 271.328125 255.0625 265.273438 254.28125 C 264.734375 254.210938 264.207031 253.949219 263.671875 253.667969 C 263.136719 253.386719 262.625 253.019531 262.128906 252.632812 C 261.195312 253.421875 260.839844 253.070312 261.492188 252 C 257.953125 248.800781 254.34375 245.628906 250.664062 242.484375 C 243.34375 238.238281 236.082031 233.898438 228.878906 229.460938 L 226.589844 225.996094 C 226.449219 225.476562 226.15625 224.863281 225.953125 224.09375 C 227.625 224.007812 229.324219 223.972656 230.949219 224.410156 C 244.847656 228.125 259.484375 231.894531 272.914062 234.875 Z M 272.917969 234.871094 " fill-opacity="1" fill-rule="nonzero"/><path fill="#fea2f5" d="M 333.210938 217.113281 C 334.398438 223.773438 341.183594 227.34375 332.164062 231.609375 C 328.3125 233.433594 327.425781 232.511719 324.324219 235.507812 C 323.96875 235.847656 316.160156 237.714844 314.804688 238.042969 C 303.710938 238.855469 290.769531 239.035156 279.683594 237.667969 C 277.75 237.429688 275.957031 237.039062 274.183594 236.140625 C 273.742188 235.757812 273.296875 235.316406 272.914062 234.871094 C 268.738281 234.003906 266.386719 225.40625 265.824219 221.386719 C 264.878906 217.9375 265.339844 216.304688 267.199219 216.480469 L 269.242188 215.933594 C 285.984375 217.878906 302.769531 218.621094 319.605469 218.164062 C 324.304688 216.828125 328.835938 216.472656 333.199219 217.113281 Z M 333.210938 217.113281 " fill-opacity="1" fill-rule="nonzero"/><path fill="#feecfc" d="M 244.992188 28.761719 C 246.597656 31.054688 247.304688 33.894531 247.113281 37.269531 L 253.949219 50.203125 L 253.242188 51.589844 L 251.144531 51.929688 C 244.007812 47.179688 237.667969 41.375 232.125 34.507812 C 229.34375 32.433594 227.074219 30.089844 225.324219 27.488281 C 217.917969 23.042969 213.636719 21.910156 205.011719 23.050781 C 203.222656 24.640625 200.789062 25.578125 197.707031 25.863281 C 194.636719 27.304688 191.78125 27.847656 189.148438 27.492188 C 187.933594 27.804688 187.15625 26.742188 186.824219 24.304688 C 179.421875 28.558594 172.199219 33.113281 165.152344 37.980469 C 157.332031 43.757812 148.917969 44.976562 139.648438 45.25 C 138.65625 46.988281 137.457031 47 136.472656 45.25 L 134.78125 46.460938 C 129.4375 46.25 124.066406 45.90625 118.796875 44.925781 L 117.429688 43.347656 C 116.515625 44.929688 114.144531 43.46875 113.621094 42.078125 C 114.929688 40.613281 115.542969 39.453125 117.429688 37.640625 C 126.121094 38.710938 134.25 40.203125 143.125 39.535156 C 164.230469 37.945312 178.792969 18.675781 198.386719 12.945312 C 222.847656 5.792969 227.4375 17.234375 244.992188 28.757812 Z M 244.992188 28.761719 " fill-opacity="1" fill-rule="nonzero"/><g clip-path="url(#110aa1cf25)"><path fill="#fea0f5" d="M 363.671875 191.746094 L 360.96875 193.640625 C 347.429688 197.519531 333.339844 201.394531 319.246094 201.261719 C 317.363281 200.949219 312.640625 199.996094 313.535156 197.453125 C 309.480469 195.335938 306.054688 188.792969 304.148438 184.414062 C 304.0625 184.21875 304.308594 183.878906 304.648438 183.503906 C 305 181.945312 306.417969 181.292969 308.910156 181.5625 C 324.363281 182.015625 340.410156 178.257812 355.324219 173.390625 L 359.230469 173.355469 C 363.105469 177.667969 368.308594 181.875 365.875 188.554688 C 365.179688 190.457031 364.433594 190.621094 363.675781 191.746094 Z M 363.671875 191.746094 " fill-opacity="1" fill-rule="nonzero"/></g><path fill="#febbf8" d="M 336.378906 123.890625 C 335.683594 124.730469 334.914062 125.59375 333.875 125.992188 C 323.988281 129.824219 300.910156 131.585938 290.394531 129.847656 C 289.300781 129.664062 288.367188 128.996094 287.507812 128.328125 L 286.308594 127.597656 C 283.238281 120.71875 280.042969 113.980469 276.722656 107.398438 C 296.914062 112.742188 318.863281 112.242188 338.285156 104.222656 C 338.308594 111.519531 336.808594 117.085938 336.378906 123.886719 Z M 336.378906 123.890625 " fill-opacity="1" fill-rule="nonzero"/><path fill="#fea3f5" d="M 321.785156 254.527344 C 320.132812 260.761719 321.871094 265.667969 323.054688 271.652344 L 323.121094 274.042969 C 306.777344 275.601562 289.925781 275.042969 273.875 273.769531 L 271.015625 272.285156 C 269.429688 273.15625 268.828125 272.605469 269.742188 271.015625 C 268.058594 270.835938 266.933594 269.570312 266.375 267.230469 L 261.597656 254.402344 L 262.128906 252.628906 C 281.878906 254.980469 301.945312 257.40625 321.785156 254.53125 Z M 321.785156 254.527344 " fill-opacity="1" fill-rule="nonzero"/><path fill="#fe70f0" d="M 182.796875 321.117188 C 183.203125 321.84375 183.316406 323.46875 183.203125 324.363281 C 181.90625 327.832031 181.707031 331.671875 182.132812 335.378906 C 183.792969 349.84375 193.296875 354.332031 205.34375 358.660156 C 206.527344 359.082031 207.742188 359.769531 208.816406 360.433594 L 211.527344 361.4375 C 215.898438 365.433594 221.007812 368.476562 226.25 371.183594 L 227.222656 373.113281 C 214.757812 375.417969 207.316406 375.46875 194.859375 373.113281 C 186.960938 368.398438 180.855469 359.214844 176.011719 351.3125 C 171.472656 343.910156 166.113281 334.699219 165.664062 326.1875 C 170.789062 320.652344 174.230469 317.324219 180.890625 313.5 C 184.453125 312.785156 183.878906 318.753906 182.796875 321.109375 Z M 182.796875 321.117188 " fill-opacity="1" fill-rule="nonzero"/><path fill="#fea8f6" d="M 359.230469 173.355469 C 345.320312 178.441406 330.574219 181.757812 315.75 182.863281 C 312.058594 183.136719 308.21875 182.289062 304.648438 183.503906 C 301.265625 181.019531 299.507812 175.472656 300.210938 171.453125 C 299.238281 170.71875 298.859375 168.636719 299.574219 167.644531 C 298.863281 165.394531 299.117188 164.132812 300.347656 163.847656 C 314.5625 164.464844 328.8125 162.667969 342.585938 158.425781 L 345.898438 158.761719 C 349.21875 163.410156 355.238281 168.902344 359.226562 173.34375 Z M 359.230469 173.355469 " fill-opacity="1" fill-rule="nonzero"/><path fill="#fe27e9" d="M 146.625 327.460938 C 143.933594 331.960938 140.703125 338.507812 138.375 343.316406 L 137.292969 343.824219 C 130.808594 340.5 124.398438 337.164062 118.070312 333.800781 C 117.804688 333.589844 117.636719 333.570312 117.4375 333.167969 C 115.882812 332.332031 115.246094 331.273438 115.53125 329.996094 C 108.015625 325.210938 100.402344 320.5625 92.6875 316.042969 L 91.199219 316.589844 C 90.691406 316.488281 83.449219 314.019531 83.140625 313.722656 C 81.304688 311.933594 83.296875 309.714844 85.707031 311.601562 L 87.390625 309.867188 C 93.402344 308.570312 99.230469 306.734375 104.890625 304.378906 L 107.28125 304.628906 C 107.460938 304.074219 107.671875 304.082031 107.917969 304.628906 L 111.671875 305.804688 C 122.570312 313.054688 133.792969 319.742188 145.335938 325.867188 Z M 146.625 327.460938 " fill-opacity="1" fill-rule="nonzero"/><path fill="#feeffc" d="M 251.339844 32.566406 C 252.804688 33.535156 251.796875 35.792969 251.117188 37.269531 C 250.4375 38.75 279.304688 47.480469 282.398438 46.175781 L 284.34375 47.785156 C 285.183594 47.894531 285.859375 47.558594 286.394531 46.859375 C 294.984375 48.347656 303.722656 50.078125 311.324219 54.574219 L 312.269531 56.664062 C 314.695312 56.609375 316.890625 57.867188 318.855469 60.445312 C 325.589844 69.078125 331.433594 78.390625 336.382812 88.375 C 337.609375 93.75 338.148438 97.417969 338.289062 102.960938 L 328.769531 88.375 C 326.613281 86.722656 324.917969 84.34375 323.6875 81.246094 C 321.300781 78.40625 319.820312 75.5 319.25 72.519531 L 317.078125 71.820312 C 310.558594 63.429688 301.285156 58.4375 290.714844 58.03125 C 280.207031 58.421875 269.855469 57.601562 259.648438 55.574219 L 257.054688 53.496094 C 255.972656 55.230469 253.09375 53.566406 253.242188 51.589844 L 245.910156 37.621094 L 244.992188 28.761719 C 246.722656 29.894531 249.539062 31.621094 251.339844 32.570312 Z M 251.339844 32.566406 " fill-opacity="1" fill-rule="nonzero"/><path fill="#feb5f8" d="M 337.648438 141.640625 L 338.035156 143.726562 C 324.179688 147.402344 308.355469 149.382812 294.492188 147.984375 C 294.039062 147.8125 293.652344 147.613281 293.535156 147.308594 C 291.355469 141.863281 288.863281 135.066406 287.09375 129.492188 C 286.992188 129.175781 287.207031 128.761719 287.515625 128.320312 C 303.871094 129.851562 320.714844 129.019531 336.378906 123.886719 C 336.050781 129.089844 336.335938 136.605469 337.648438 141.640625 Z M 337.648438 141.640625 " fill-opacity="1" fill-rule="nonzero"/><path fill="#feaff7" d="M 345.898438 158.765625 C 335.585938 161.921875 324.644531 164.371094 313.84375 165.101562 C 309.433594 165.402344 304.910156 164.800781 300.503906 165.101562 C 298.695312 165.226562 299.84375 166.667969 299.574219 167.644531 C 296.96875 161.589844 295.160156 154.511719 294.5 147.984375 C 294.195312 145.980469 295.308594 146.785156 296.527344 146.894531 C 309.125 148.03125 323.347656 145.914062 335.65625 143.097656 C 336.773438 142.839844 338.03125 143.425781 337.65625 141.636719 C 338.710938 145.691406 343.425781 155.289062 345.90625 158.761719 Z M 345.898438 158.765625 " fill-opacity="1" fill-rule="nonzero"/><path fill="#fedefb" d="M 202.472656 213.941406 C 202.128906 214.316406 201.609375 214.867188 201.238281 214.730469 C 197.0625 213.167969 190.738281 209.578125 187.871094 206.332031 C 186.636719 206.742188 186.398438 206.101562 187.238281 205.0625 C 184.347656 201.289062 181.664062 197.339844 179.1875 193.214844 L 169.46875 182.867188 C 161.777344 177.085938 153.542969 171.101562 143.445312 170.816406 C 160.222656 166.519531 180.617188 168.402344 191.308594 183.558594 C 197.777344 192.730469 199.742188 203.332031 202.472656 213.941406 Z M 202.472656 213.941406 " fill-opacity="1" fill-rule="nonzero"/><path fill="#feacf6" d="M 269.742188 271.015625 C 270.027344 271.449219 270.652344 271.839844 271.011719 272.285156 L 273.773438 273.449219 C 278.367188 277.800781 284.625 279.464844 290.777344 280.085938 C 297.179688 280.304688 320.109375 281.957031 322.890625 288.144531 C 323.164062 288.757812 323.21875 289.386719 323.054688 290.042969 C 322.980469 290.226562 323.132812 290.511719 323.054688 290.675781 C 321.183594 292.660156 314.980469 293.964844 313.21875 291.945312 C 313.085938 292.441406 312.875 293.175781 312.480469 293.214844 C 308.234375 293.628906 296.574219 293.808594 292.570312 293.214844 L 291.644531 291.945312 C 290.890625 293.273438 289.015625 293.324219 286.015625 292.097656 L 283.707031 291.945312 C 270.625 285.621094 259.863281 279.285156 249.4375 269.117188 C 249.109375 268.566406 248.9375 267.753906 249.398438 267.503906 C 251.082031 266.578125 266.105469 270.078125 269.75 271.019531 Z M 269.742188 271.015625 " fill-opacity="1" fill-rule="nonzero"/><path fill="#fea9f6" d="M 289.417969 200.625 C 298.8125 215.476562 308.664062 221.476562 326.230469 215.84375 C 326.835938 214.832031 328.820312 214.25 330.039062 214.574219 C 329.238281 212.832031 332.230469 211.792969 333.214844 213.308594 C 333.355469 214.5 333.015625 215.988281 333.214844 217.113281 C 311.402344 220.847656 289 219.835938 267.214844 216.480469 C 266.234375 216.28125 266.074219 215.964844 266.875 215.523438 L 266.578125 208.234375 C 264.402344 206.3125 262.796875 200.921875 263.402344 198.085938 C 263.453125 197.597656 263.644531 196.859375 263.953125 196.867188 C 268.148438 197.011719 284.402344 198.082031 287.382812 199.152344 L 289.425781 200.625 Z M 289.417969 200.625 " fill-opacity="1" fill-rule="nonzero"/><path fill="#fecef9" d="M 249.4375 309.070312 C 243.582031 316.507812 241.222656 324.976562 243.09375 334.4375 C 243.511719 336.703125 239.707031 339.042969 238.019531 337.609375 L 235.914062 337.75 C 229.464844 333.296875 224.097656 327.269531 220.527344 320.28125 C 218.667969 316.640625 216.144531 311.675781 217.707031 307.800781 C 216.914062 306.371094 217.546875 305.527344 219.613281 305.261719 C 229.917969 305.597656 239.328125 307.570312 249.4375 309.070312 Z M 249.4375 309.070312 " fill-opacity="1" fill-rule="nonzero"/><path fill="#fe2eea" d="M 85.699219 311.601562 C 84.632812 311.878906 83.421875 310.84375 83.796875 312.867188 C 86.894531 313.199219 90.296875 314.359375 92.6875 316.039062 C 100.460938 320.765625 108.078125 325.417969 115.53125 329.988281 C 117.816406 332.09375 116.785156 331.839844 117.4375 333.160156 C 112.597656 331.761719 108.320312 329.269531 103.472656 327.777344 C 98.179688 326.148438 92.453125 325.023438 86.976562 324.285156 C 81.585938 324.324219 76.195312 324.308594 70.8125 324.226562 C 69.355469 323.75 58.34375 315.507812 58.003906 314.550781 C 57.640625 313.515625 57.601562 313.28125 58.414062 312.238281 C 62.789062 307.570312 66.847656 303.683594 71.742188 299.550781 L 73.359375 299.742188 C 77.484375 303.554688 81.660156 307.171875 85.875 310.601562 Z M 85.699219 311.601562 " fill-opacity="1" fill-rule="nonzero"/><path fill="#fea8f6" d="M 153.605469 44.617188 C 154.042969 44.511719 154.84375 44.371094 154.945312 44.632812 C 158.007812 52.027344 162.316406 64.941406 164.101562 72.6875 L 163.128906 73.789062 C 162.503906 74.039062 161.515625 73.179688 161.855469 75.058594 C 157.195312 72.246094 150.527344 76.261719 145.992188 78.230469 C 145.511719 77.914062 145.046875 77.574219 144.640625 77.167969 C 141.863281 74.394531 134.875 50.632812 135.847656 46.863281 C 135.988281 46.308594 136.214844 45.78125 136.472656 45.253906 C 137.527344 45.289062 138.585938 45.253906 139.648438 45.253906 C 144.03125 45.03125 148.386719 44.589844 152.710938 43.9375 L 153.605469 44.621094 Z M 153.605469 44.617188 " fill-opacity="1" fill-rule="nonzero"/><path fill="#fe5cef" d="M 140.910156 282.433594 C 141.457031 282.613281 141.445312 282.828125 140.910156 283.066406 C 140 285.867188 137.910156 288.207031 134.648438 290.097656 C 132.027344 292.777344 129.25 294.238281 126.316406 294.484375 C 125.792969 295.003906 124.867188 295.253906 124.121094 295.1875 C 121.679688 294.972656 103.085938 281.34375 101.886719 279.894531 C 101.292969 279.175781 101.035156 278.277344 100.929688 277.355469 C 106.1875 273.515625 111.507812 269.730469 116.796875 265.941406 L 118.03125 266.179688 C 124.589844 271.53125 131.890625 276.355469 139.507812 280.304688 L 140.910156 282.429688 Z M 140.910156 282.433594 " fill-opacity="1" fill-rule="nonzero"/><path fill="#fe4eed" d="M 126.316406 294.480469 C 126.871094 294.660156 126.863281 294.867188 126.316406 295.113281 C 126.542969 295.546875 126.785156 296.269531 126.515625 296.4375 C 124.675781 297.585938 110.421875 305.078125 109.464844 305.132812 L 107.910156 304.628906 L 107.277344 304.628906 L 105.210938 304.6875 C 105.210938 304.6875 98.65625 299.871094 85.550781 290.238281 L 85.699219 288.773438 C 90.746094 284.875 95.785156 281.125 100.929688 277.355469 C 105.570312 281.601562 111.121094 285.386719 116.339844 288.914062 C 119.339844 290.941406 122.785156 293.871094 126.316406 294.480469 Z M 126.316406 294.480469 " fill-opacity="1" fill-rule="nonzero"/><path fill="#fe69f0" d="M 152.335938 269.113281 C 152.898438 269.230469 152.871094 269.445312 152.335938 269.746094 C 152.738281 270.125 153.300781 270.691406 153.140625 271.089844 C 152.15625 273.523438 144.816406 280.789062 142.492188 282.671875 L 140.910156 282.429688 C 133.335938 278.730469 125.226562 273.5625 118.613281 268.246094 C 117.777344 267.574219 116.703125 267.363281 116.796875 265.941406 C 121.988281 262.226562 127.464844 258.84375 132.660156 255.15625 C 138.597656 258.519531 145.082031 262.648438 150.976562 266.640625 C 151.316406 266.867188 151.546875 267.269531 151.78125 267.691406 C 152.015625 268.117188 152.1875 268.613281 152.332031 269.105469 Z M 152.335938 269.113281 " fill-opacity="1" fill-rule="nonzero"/><path fill="#fed1fa" d="M 242.453125 284.972656 C 245.804688 286.015625 249.777344 288.882812 253.261719 290.34375 C 267.367188 296.238281 287.375 301.183594 302.632812 301.949219 C 303.859375 302.007812 304.777344 302.382812 305.285156 300.824219 C 307.0625 298.875 309.589844 301.429688 306.554688 302.730469 C 295.300781 306.0625 286.847656 305.488281 275.242188 303.894531 C 270.367188 303.222656 264.328125 301.222656 259.808594 300.859375 C 258.589844 300.761719 258.089844 300.941406 257.046875 301.460938 C 256.96875 301.101562 257.171875 300.355469 257.046875 300.191406 C 255.261719 299.921875 253.992188 299.285156 253.238281 298.285156 C 247.34375 298 224.683594 286.464844 223.542969 281.859375 C 223.4375 281.433594 223.414062 280.984375 223.414062 280.527344 L 225.488281 279.789062 C 231.449219 280.679688 237.101562 282.402344 242.453125 284.964844 Z M 242.453125 284.972656 " fill-opacity="1" fill-rule="nonzero"/><path fill="#fe9bf4" d="M 271.015625 272.285156 L 288.4375 273.578125 C 298.992188 272.925781 310.527344 274.648438 320.875 272.929688 C 322.0625 272.730469 323.414062 273.648438 323.054688 271.652344 C 324.675781 279.828125 326.621094 281.503906 323.054688 290.042969 C 308.847656 275.800781 284.117188 288.34375 271.011719 272.285156 Z M 271.015625 272.285156 " fill-opacity="1" fill-rule="nonzero"/><path fill="#fe64ef" d="M 194.859375 373.117188 C 188.828125 371.980469 184.71875 370.691406 178.992188 368.683594 C 168.945312 363.65625 163.332031 352.625 160.882812 342.039062 C 160.152344 338.878906 159.460938 334.90625 160.585938 331.898438 C 162.226562 329.753906 163.867188 328.128906 165.664062 326.191406 C 171.765625 344.183594 181.476562 359.691406 194.859375 373.117188 Z M 194.859375 373.117188 " fill-opacity="1" fill-rule="nonzero"/><path fill="#febcf8" d="M 321.148438 201.890625 C 322.097656 200.796875 325.417969 201.070312 325.273438 203.160156 C 325.410156 202.664062 325.605469 201.941406 326 201.890625 C 327.953125 201.640625 338.585938 201.539062 340.234375 201.890625 L 341.140625 203.160156 C 341.078125 200.835938 348.101562 199.453125 347.167969 202.523438 C 342.945312 204.402344 338.042969 205.183594 335.214844 209.285156 C 334.46875 210.367188 334.007812 212.691406 333.210938 213.308594 C 333.074219 213.410156 330.710938 214.269531 330.035156 214.574219 C 328.480469 214.710938 326.996094 214.921875 325.59375 215.210938 C 310.902344 218.253906 302.914062 213.316406 295.769531 201.261719 C 295.894531 200.761719 296.097656 200.011719 296.484375 199.976562 C 299.679688 199.691406 311.988281 199.046875 314.425781 199.582031 C 316.570312 200.777344 318.8125 201.546875 321.15625 201.894531 Z M 321.148438 201.890625 " fill-opacity="1" fill-rule="nonzero"/><path fill="#fea0f5" d="M 136.472656 45.25 C 137.976562 56.597656 141.632812 67.695312 145.992188 78.226562 C 139.695312 80.957031 138.023438 82.359375 130.761719 83.933594 C 127.457031 84.90625 125.742188 82.320312 126.320312 79.496094 L 126.371094 78.535156 C 128.910156 76.96875 131.011719 74.964844 132.667969 72.515625 C 133.050781 71.308594 133.261719 70.039062 133.300781 68.710938 C 132.382812 67.769531 132.148438 66.300781 132.585938 64.300781 C 131.886719 62.398438 131.917969 60.910156 132.671875 59.832031 C 131.660156 54.300781 124.890625 50.550781 119.351562 51.105469 L 118.710938 50.316406 C 116.65625 50.21875 115.671875 44.316406 117.441406 43.34375 C 123.171875 44.652344 130.589844 45.050781 136.480469 45.246094 Z M 136.472656 45.25 " fill-opacity="1" fill-rule="nonzero"/><path fill="#fe3feb" d="M 107.277344 304.628906 C 100.507812 308.101562 93 309.738281 85.699219 311.601562 C 81.449219 307.433594 74.714844 304.710938 71.742188 299.550781 C 76.210938 295.785156 81.074219 292.347656 85.699219 288.769531 L 107.277344 304.621094 Z M 107.277344 304.628906 " fill-opacity="1" fill-rule="nonzero"/><path fill="#fe7bf1" d="M 231.667969 355.359375 C 231.839844 354.886719 232.828125 354.570312 233.316406 354.601562 C 239.664062 357.785156 246.191406 359.964844 252.910156 361.140625 L 253.878906 362.335938 C 244.679688 368.53125 238.226562 371.082031 227.222656 373.117188 C 220.746094 369.8125 213.742188 365.898438 208.816406 360.433594 L 209.453125 360.433594 L 210.5625 359.222656 C 217.078125 359.484375 223.328125 357.964844 229.316406 354.667969 C 230.164062 354.691406 231.046875 354.730469 231.664062 355.355469 Z M 231.667969 355.359375 " fill-opacity="1" fill-rule="nonzero"/><path fill="#fe75f1" d="M 161.855469 253.894531 C 162.222656 256.730469 161.210938 259.628906 158.816406 262.585938 C 157.226562 266.085938 155.066406 268.257812 152.335938 269.113281 C 146.558594 265.019531 140.191406 261.671875 134.488281 257.460938 C 133.605469 256.8125 132.582031 256.597656 132.660156 255.164062 C 137.765625 251.539062 143.671875 248.011719 148.527344 244.378906 C 152.171875 245.4375 157.675781 249.238281 160.917969 251.839844 L 161.851562 253.894531 Z M 161.855469 253.894531 " fill-opacity="1" fill-rule="nonzero"/><path fill="#fea0f5" d="M 175.183594 129.597656 C 175.757812 130.988281 175.585938 133.1875 175.183594 134.667969 C 169.890625 131.882812 158.8125 127.996094 152.972656 127.058594 C 150.617188 126.203125 147.246094 122.351562 148.53125 120.082031 C 152.242188 116.816406 157.96875 110.304688 160.59375 106.132812 C 164.222656 109.136719 167.316406 112.789062 169.878906 117.078125 C 173.621094 120.707031 175.011719 124.390625 175.1875 129.597656 Z M 175.183594 129.597656 " fill-opacity="1" fill-rule="nonzero"/><path fill="#fea8f6" d="M 170.742188 89.644531 L 172.765625 89.089844 C 173.628906 89.238281 181.382812 101.734375 180.890625 104.230469 L 181.011719 106.367188 C 177.402344 113.476562 175.460938 121.222656 175.183594 129.597656 C 174.527344 123.015625 172.113281 122.230469 168.582031 117.480469 C 165.820312 113.757812 163.171875 109.964844 160.582031 106.132812 C 163.390625 101.664062 165.921875 96.25 166.292969 90.914062 C 167.671875 90.808594 169.507812 90.222656 170.730469 89.644531 Z M 170.742188 89.644531 " fill-opacity="1" fill-rule="nonzero"/><path fill="#fe85f2" d="M 187.242188 205.0625 C 187.433594 205.492188 187.699219 205.898438 187.878906 206.332031 C 190.015625 207.925781 190.882812 210.035156 191.582031 212.542969 C 193.703125 217.972656 196.199219 224.804688 196.128906 230.429688 C 195.894531 230.863281 195.449219 231.46875 195.152344 231.347656 C 189.996094 229.226562 179.167969 223.589844 174.621094 220.488281 L 174.546875 219.011719 L 173.515625 217.8125 C 174.621094 215.136719 175.175781 212.363281 175.183594 209.5 C 176.027344 206.140625 176.726562 202.167969 176.453125 198.71875 L 177.710938 197.988281 C 181.503906 199.722656 184.675781 202.078125 187.238281 205.058594 Z M 187.242188 205.0625 " fill-opacity="1" fill-rule="nonzero"/><path fill="#fe98f4" d="M 117.429688 43.347656 L 118.703125 50.320312 L 118.445312 51.210938 C 114.390625 51.894531 109.203125 54.9375 108.550781 59.199219 L 109.296875 60.632812 C 107.902344 63.644531 108.097656 66.835938 108.921875 69.988281 L 107.917969 71.253906 C 110.746094 78.207031 118.554688 81.5 125.5625 78.902344 L 126.320312 79.496094 C 128.457031 80.636719 127.375 84.4375 130.761719 83.933594 C 122.140625 85.808594 116.742188 87.046875 108.550781 82.664062 C 104.601562 76.582031 102.28125 67.148438 102.207031 59.835938 C 104.964844 51.625 108.0625 48.308594 113.632812 42.078125 C 115.117188 41.648438 116.617188 43.15625 117.441406 43.347656 Z M 117.429688 43.347656 " fill-opacity="1" fill-rule="nonzero"/><path fill="#feaef7" d="M 245.628906 342.046875 C 245.816406 346.183594 237.507812 353.453125 233.8125 354.921875 L 231.667969 354.726562 C 228.644531 354.921875 225.726562 353.582031 222.917969 350.714844 C 220.046875 348.507812 215.449219 344.878906 215.167969 341.410156 L 216.921875 340.589844 C 223.644531 342.476562 230.257812 340.597656 236.152344 337.199219 L 238.019531 337.609375 C 239.777344 336.597656 241.574219 335.910156 243.09375 334.4375 C 243.449219 336.234375 244.851562 340.300781 245.632812 342.046875 Z M 245.628906 342.046875 " fill-opacity="1" fill-rule="nonzero"/><path fill="#fe14e7" d="M 178.992188 368.683594 C 172.292969 366.328125 168.078125 364.273438 161.855469 361.074219 L 158.882812 358.339844 C 156.550781 353.863281 154.371094 349.492188 152.335938 345.21875 C 155.03125 340.316406 157.132812 336.414062 160.585938 331.902344 C 161.414062 335.441406 161.496094 338.972656 162.289062 342.570312 C 164.59375 353.089844 170.800781 361.933594 178.992188 368.683594 Z M 178.992188 368.683594 " fill-opacity="1" fill-rule="nonzero"/><path fill="#fefefe" d="M 65.8125 111.625 C 59.675781 117.792969 47.027344 111.234375 51.304688 101.25 C 56.855469 88.308594 76.171875 101.199219 65.8125 111.625 Z M 65.8125 111.625 " fill-opacity="1" fill-rule="nonzero"/><path fill="#fe85f3" d="M 253.878906 362.339844 C 251.21875 362.667969 248.914062 361.90625 246.414062 361.238281 C 243.558594 360.472656 232.457031 355.359375 231.664062 355.367188 C 231.109375 355.1875 231.117188 354.976562 231.664062 354.730469 C 237.117188 351.589844 242.179688 347.375 245.625 342.046875 C 248.378906 348.226562 253.628906 354.601562 258.304688 359.484375 C 257.414062 361.445312 254.929688 361.625 253.875 362.335938 Z M 253.878906 362.339844 " fill-opacity="1" fill-rule="nonzero"/><path fill="#fea5f6" d="M 306.554688 302.730469 L 307.1875 301.46875 C 306.464844 301.539062 305.902344 301.035156 305.285156 300.824219 C 297.800781 298.277344 290.8125 295.382812 283.707031 291.945312 C 285.664062 290.09375 289.820312 291.945312 291.644531 291.945312 L 313.21875 291.945312 L 323.054688 290.675781 C 319.429688 298.085938 314.089844 300.496094 306.554688 302.730469 Z M 306.554688 302.730469 " fill-opacity="1" fill-rule="nonzero"/><path fill="#fe7ff2" d="M 162.492188 231.699219 C 164.597656 232.402344 169.539062 234.371094 169.472656 236.769531 C 170.023438 236.980469 170.023438 237.195312 169.472656 237.40625 C 169.746094 242.78125 166.28125 250.035156 162.492188 253.894531 C 162.3125 254.4375 162.101562 254.425781 161.855469 253.894531 C 158.152344 251.691406 154.128906 248.945312 150.601562 246.421875 C 149.78125 245.839844 148.90625 245.394531 148.527344 244.378906 C 153.457031 240.6875 158.433594 236.308594 162.488281 231.695312 Z M 162.492188 231.699219 " fill-opacity="1" fill-rule="nonzero"/><path fill="#fe1ce8" d="M 86.972656 324.289062 C 82.277344 324.289062 77.359375 324.394531 72.699219 324.929688 C 69.019531 325.351562 53.761719 329.109375 51.894531 328.628906 C 45.804688 327.066406 52.652344 318.144531 54.625 315.746094 C 55.785156 314.335938 57.335938 313.390625 58.414062 312.238281 C 58.359375 313.675781 59.296875 313.929688 60.121094 314.65625 C 63.347656 317.5 71.296875 324.421875 75.234375 324.339844 C 79.992188 324.234375 81.785156 323.589844 86.976562 324.289062 Z M 86.972656 324.289062 " fill-opacity="1" fill-rule="nonzero"/><path fill="#fe98f4" d="M 363.671875 191.746094 C 359.003906 198.636719 354.269531 199.371094 347.167969 202.53125 C 345.988281 201.074219 342.464844 203.164062 341.140625 203.164062 L 325.273438 203.164062 C 324.820312 203.164062 322.335938 202.085938 321.148438 201.894531 C 320.210938 201.988281 319.574219 201.78125 319.246094 201.261719 C 327 199.515625 334.941406 198.773438 342.734375 197.144531 C 349.828125 195.660156 356.65625 193.449219 363.671875 191.746094 Z M 363.671875 191.746094 " fill-opacity="1" fill-rule="nonzero"/><path fill="#fee6fb" d="M 321.785156 57.929688 C 328.289062 65.046875 334.253906 79.035156 336.378906 88.371094 C 334.863281 87.628906 334.078125 86.222656 333.191406 84.898438 C 326.214844 74.515625 323.414062 64.0625 312.265625 56.664062 C 311.949219 56.207031 311.875 55.738281 312.097656 55.257812 L 316.703125 53.496094 C 318.164062 54.59375 320.59375 56.632812 321.78125 57.929688 Z M 321.785156 57.929688 " fill-opacity="1" fill-rule="nonzero"/><path fill="#fdfdfd" d="M 70.941406 47.3125 C 83.257812 44.152344 83.394531 62.417969 72.859375 60.980469 C 65.085938 59.921875 64.851562 48.878906 70.941406 47.3125 Z M 70.941406 47.3125 " fill-opacity="1" fill-rule="nonzero"/><path fill="#fdfdfd" d="M 60.78125 221.0625 C 70.320312 219.097656 72.484375 233.296875 63.644531 234.738281 C 54.246094 236.265625 52.085938 222.851562 60.78125 221.0625 Z M 60.78125 221.0625 " fill-opacity="1" fill-rule="nonzero"/><g clip-path="url(#6b05303cc1)"><path fill="#fdfdfd" d="M 15.109375 152.542969 C 23.195312 151.621094 25.265625 164.566406 17.980469 166.238281 C 6.855469 168.804688 5.648438 153.625 15.109375 152.542969 Z M 15.109375 152.542969 " fill-opacity="1" fill-rule="nonzero"/></g><path fill="#fd89f1" d="M 174.546875 219.011719 C 175.453125 224.699219 173.152344 232.351562 169.472656 236.769531 C 167.539062 235.207031 163.175781 234.257812 162.492188 231.699219 C 167.921875 225.527344 173.15625 217.558594 175.1875 209.503906 C 176.59375 211.988281 175.136719 216.234375 174.550781 219.019531 Z M 174.546875 219.011719 " fill-opacity="1" fill-rule="nonzero"/><path fill="#fd8ff2" d="M 187.242188 205.0625 L 176.453125 198.722656 C 176.242188 196.105469 174.789062 191.605469 173.585938 189.21875 C 172.386719 186.832031 170.414062 185.292969 169.472656 182.863281 C 179.433594 190.351562 182.140625 193.449219 187.242188 205.058594 Z M 187.242188 205.0625 " fill-opacity="1" fill-rule="nonzero"/><path fill="#fd01e4" d="M 161.855469 361.074219 C 156.410156 358.265625 152.972656 356.097656 147.898438 352.828125 C 149.472656 350.390625 150.941406 347.757812 152.335938 345.21875 C 154.105469 344.007812 153.285156 344.765625 153.90625 345.839844 C 156.765625 350.765625 158.785156 356.246094 161.851562 361.074219 Z M 161.855469 361.074219 " fill-opacity="1" fill-rule="nonzero"/><path fill="#fc8ef1" d="M 108.546875 82.664062 C 99.007812 77.5625 99.0625 69.167969 102.203125 59.835938 Z M 108.546875 82.664062 " fill-opacity="1" fill-rule="nonzero"/><path fill="#f9f9f9" d="M 25.851562 116.09375 C 22.648438 119.984375 16.414062 115.355469 19.398438 111.222656 C 22.699219 106.664062 28.945312 112.332031 25.851562 116.09375 Z M 25.851562 116.09375 " fill-opacity="1" fill-rule="nonzero"/><path fill="#fafafa" d="M 40.464844 72.609375 C 45.582031 71.207031 47.707031 80.011719 42.140625 80.601562 C 37.109375 81.128906 35.785156 73.894531 40.464844 72.609375 Z M 40.464844 72.609375 " fill-opacity="1" fill-rule="nonzero"/><path fill="#fbfbfb" d="M 23.976562 207.066406 C 29.742188 206.023438 30.285156 214.835938 24.976562 215.046875 C 20.640625 215.214844 19.234375 207.925781 23.976562 207.066406 Z M 23.976562 207.066406 " fill-opacity="1" fill-rule="nonzero"/><path fill="#fc97f2" d="M 152.972656 127.058594 C 148.863281 126.398438 143.835938 126.375 139.648438 126.421875 C 142.5625 124.300781 145.816406 122.472656 148.53125 120.082031 Z M 152.972656 127.058594 " fill-opacity="1" fill-rule="nonzero"/><path fill="#f815e2" d="M 138.375 343.316406 C 138.046875 344 138.027344 345.089844 137.742188 345.851562 C 132.007812 342.050781 123 337.683594 118.066406 333.800781 C 119.300781 332.753906 119.679688 333.558594 120.671875 334.019531 C 126.570312 336.820312 132.113281 341.167969 138.375 343.316406 Z M 138.375 343.316406 " fill-opacity="1" fill-rule="nonzero"/><path fill="#febdf8" d="M 229.128906 165.746094 C 230.84375 165.210938 231.59375 166.226562 230.398438 167.648438 C 233.5 171.179688 236.734375 174.605469 240.097656 177.917969 C 248.597656 182.375 256.035156 187.851562 262.402344 194.339844 L 262.128906 196.183594 C 262.355469 196.796875 262.449219 197.652344 262.003906 197.847656 C 258.144531 199.527344 221.972656 185.542969 216.289062 181.984375 C 215.078125 181.230469 214.097656 180.214844 213.261719 179.066406 C 205.996094 162.34375 191.921875 144.179688 175.816406 135.308594 C 175.390625 134.113281 175.292969 126.699219 175.628906 126.273438 C 175.8125 126.042969 176.113281 125.902344 176.453125 125.792969 L 178.183594 126.304688 C 192.335938 142.5625 209.316406 155.710938 229.125 165.75 Z M 229.128906 165.746094 " fill-opacity="1" fill-rule="nonzero"/><path fill="#feb7f7" d="M 262.128906 196.183594 C 263.957031 195.960938 264.347656 196.5 263.398438 198.085938 C 265.058594 201.414062 265.949219 204.578125 266.574219 208.234375 L 266.792969 216.285156 C 262.070312 216.722656 257.207031 216.132812 252.214844 214.515625 C 246.207031 213.132812 225.53125 207.285156 222.027344 203.910156 C 221.597656 203.492188 221.234375 203.019531 220.882812 202.53125 C 218.808594 194.554688 216.554688 186.621094 213.269531 179.066406 C 228.207031 186.625 242.882812 192.363281 259.214844 196.265625 C 260.0625 196.46875 261.59375 197.359375 262.132812 196.1875 Z M 262.128906 196.183594 " fill-opacity="1" fill-rule="nonzero"/><path fill="#feb2f7" d="M 220.878906 202.523438 C 235.488281 208.515625 250.804688 213.984375 266.574219 215.84375 L 266.574219 208.230469 C 267.109375 211.398438 267.039062 213.292969 267.207031 216.472656 C 267.207031 216.542969 266.664062 216.871094 266.707031 217.832031 C 266.953125 223.246094 269.339844 230.710938 272.921875 234.867188 C 271.9375 235.902344 269.574219 234.960938 268.277344 234.746094 C 253.882812 232.367188 239.75 228.777344 225.957031 224.085938 C 224.074219 216.933594 222.738281 209.660156 220.882812 202.523438 Z M 220.878906 202.523438 " fill-opacity="1" fill-rule="nonzero"/><path fill="#fed6fa" d="M 207.554688 236.136719 C 213.324219 255.828125 224.683594 274.132812 242.457031 284.964844 C 236.742188 283.1875 229.4375 282.324219 223.417969 280.527344 C 222.191406 281.734375 221.867188 281.582031 222.148438 279.894531 C 217.054688 277.277344 204.867188 260.894531 204.824219 256.101562 C 204.824219 255.578125 204.902344 255.050781 205.011719 254.527344 C 200.792969 249.746094 197.988281 241.273438 196.328125 234.921875 L 196.761719 232.328125 C 199.011719 229.824219 205.894531 233.523438 207.554688 236.136719 Z M 207.554688 236.136719 " fill-opacity="1" fill-rule="nonzero"/><path fill="#feb2f7" d="M 261.492188 251.988281 C 261.628906 252.214844 262.003906 252.390625 262.128906 252.625 C 265.128906 258.25 266.34375 265.808594 269.742188 271.015625 C 269.097656 272.265625 267.535156 271.460938 266.574219 271.339844 C 261.84375 270.757812 257.1875 269.738281 252.511719 268.882812 C 251.589844 268.710938 250.039062 267.914062 249.4375 269.113281 C 242.226562 262.078125 237.082031 254.867188 232.9375 245.648438 C 232.976562 245.121094 233.261719 244.429688 233.628906 244.503906 C 239.25 245.613281 244.933594 246.917969 250.527344 248.257812 C 254.738281 248.65625 258.394531 249.90625 261.492188 251.988281 Z M 261.492188 251.988281 " fill-opacity="1" fill-rule="nonzero"/><path fill="#feb9f7" d="M 261.492188 251.988281 L 232.933594 245.648438 C 229.789062 238.660156 228.539062 233.199219 226.589844 225.988281 C 237.773438 235.855469 253.535156 238.484375 261.492188 251.988281 Z M 261.492188 251.988281 " fill-opacity="1" fill-rule="nonzero"/><path fill="#fedbfb" d="M 202.472656 213.941406 C 204.34375 221.210938 205.453125 228.980469 207.546875 236.136719 C 204.023438 234.9375 200.578125 232.457031 196.757812 232.328125 C 194.984375 232.125 194.832031 231.652344 196.121094 230.425781 C 193.246094 222.433594 191.164062 214.1875 187.871094 206.328125 L 202.46875 213.9375 Z M 202.472656 213.941406 " fill-opacity="1" fill-rule="nonzero"/><path fill="#fe96f4" d="M 126.171875 139.902344 C 105.777344 142.425781 114.0625 174.265625 133.457031 165.574219 C 147.261719 159.390625 140.96875 138.070312 126.171875 139.902344 Z M 120.191406 160.445312 C 111.171875 150.847656 125.292969 137.269531 134.597656 145.734375 C 145.132812 155.324219 129.40625 170.253906 120.191406 160.445312 Z M 120.191406 160.445312 " fill-opacity="1" fill-rule="nonzero"/><path fill="#feb7f7" d="M 187.878906 111.839844 L 187.558594 113.40625 C 183.011719 115.925781 179.476562 120.207031 177.921875 125.175781 L 176.453125 125.792969 C 175.722656 129.078125 175.667969 131.839844 175.816406 135.308594 C 175.574219 135.171875 175.390625 134.78125 175.183594 134.671875 C 175.066406 133.003906 175.347656 131.253906 175.183594 129.601562 C 174.203125 120.597656 175.675781 111.785156 180.890625 104.234375 C 181.074219 103.679688 181.28125 103.6875 181.527344 104.234375 C 183.734375 103.644531 188.667969 109.699219 187.871094 111.84375 Z M 187.878906 111.839844 " fill-opacity="1" fill-rule="nonzero"/><path fill="#feecfc" d="M 283.707031 41.441406 C 289.808594 41.296875 289.945312 47.527344 284.34375 47.785156 C 278.644531 46.765625 272.847656 46.339844 267.203125 44.9375 C 260.507812 43.273438 255.011719 40.453125 248.8125 37.625 C 248.558594 36.640625 249.777344 37.203125 250.097656 36.589844 C 250.722656 35.402344 250.628906 33.769531 251.34375 32.558594 C 262.6875 38.535156 271.589844 39.292969 283.707031 41.4375 Z M 283.707031 41.441406 " fill-opacity="1" fill-rule="nonzero"/><path fill="#feebfb" d="M 316.710938 53.496094 C 316.6875 56.117188 313.769531 55.417969 312.269531 56.667969 C 303.863281 51.089844 294.078125 49.527344 284.34375 47.789062 C 286.699219 47.875 287.578125 42.726562 286.882812 42.082031 C 286.617188 41.839844 284.113281 42.609375 283.707031 41.449219 C 296.46875 43.703125 306.078125 45.492188 316.710938 53.5 Z M 316.710938 53.496094 " fill-opacity="1" fill-rule="nonzero"/><path fill="#febbf8" d="M 196.761719 94.714844 C 196.917969 94.152344 197.132812 94.164062 197.398438 94.714844 L 199.066406 95.339844 C 213.824219 116.179688 237.503906 130.375 260.863281 139.738281 L 262.738281 140.296875 C 265.21875 144.367188 267.34375 148.617188 269.113281 153.058594 C 270.847656 156.417969 271.089844 158.914062 272.289062 161.9375 C 271.144531 162.332031 269.933594 162.6875 268.714844 162.527344 C 258.332031 161.136719 234.578125 151.988281 226.316406 145.71875 C 225.339844 144.980469 224.621094 144 224.058594 142.910156 C 223.101562 143.699219 222.769531 143.339844 223.421875 142.277344 L 221.726562 140.167969 C 218.613281 125.445312 208.027344 106.988281 190.316406 112.554688 L 188.515625 111.832031 C 188.371094 112.40625 188.164062 112.394531 187.882812 111.832031 L 181.539062 104.222656 C 180.4375 101.574219 185.296875 98.367188 187.566406 96.9375 C 189.960938 95.433594 194.484375 92.660156 196.769531 94.710938 Z M 196.761719 94.714844 " fill-opacity="1" fill-rule="nonzero"/><path fill="#feb7f7" d="M 272.285156 161.9375 C 274.824219 168.339844 277.207031 175.199219 279.898438 181.597656 L 278.199219 182.253906 C 262.375 181.203125 247.011719 175.382812 232.71875 169.878906 L 230.398438 167.644531 C 230.101562 167.015625 229.359375 166.339844 229.128906 165.742188 L 227.316406 164.445312 C 225.574219 158.03125 224.199219 151.53125 223.199219 144.941406 L 224.054688 142.910156 C 238.921875 151.875 255.101562 158.808594 272.285156 161.9375 Z M 272.285156 161.9375 " fill-opacity="1" fill-rule="nonzero"/><path fill="#febbf8" d="M 205.011719 23.050781 C 207.058594 22.695312 206.101562 24.085938 206.253906 25.269531 C 208.316406 41.347656 213.726562 55.003906 222.148438 68.710938 C 214.144531 66.539062 204.3125 66.25 196.128906 66.804688 C 195.835938 65.730469 196.402344 65.15625 197.8125 65.078125 C 192.871094 54.371094 189.742188 42.992188 187.21875 31.5 L 187.871094 28.753906 C 186.84375 27.316406 187.59375 26.59375 189.140625 27.484375 C 193.953125 25.441406 199.832031 23.726562 205.007812 23.046875 Z M 205.011719 23.050781 " fill-opacity="1" fill-rule="nonzero"/><path fill="#feb0f7" d="M 279.898438 181.597656 C 282.445312 187.65625 285.917969 195.101562 289.417969 200.625 L 263.398438 198.085938 C 263.089844 197.46875 262.527344 196.796875 262.128906 196.183594 C 253.648438 183.0625 238.375 184.566406 230.398438 167.644531 L 247.203125 174 C 257.847656 177.386719 268.738281 180.410156 279.898438 181.597656 Z M 279.898438 181.597656 " fill-opacity="1" fill-rule="nonzero"/><path fill="#feb5f8" d="M 187.878906 28.761719 C 190.878906 41.441406 193.585938 54.335938 199.925781 65.867188 L 196.128906 66.808594 C 191.050781 67.15625 185.882812 67.75 180.898438 68.714844 C 180.40625 68.8125 179.632812 68.878906 179.507812 68.550781 C 176.046875 59.230469 172.488281 48.324219 169.773438 38.753906 L 170.742188 37.636719 C 172.578125 34.867188 183.757812 28.347656 186.4375 28.492188 C 186.921875 28.515625 187.402344 28.628906 187.878906 28.761719 Z M 187.878906 28.761719 " fill-opacity="1" fill-rule="nonzero"/><path fill="#feb1f7" d="M 208.1875 79.496094 L 210.894531 81.214844 C 221.546875 96.449219 236.449219 108.191406 252.988281 116.511719 L 255.152344 118.8125 C 260.519531 129.890625 265.449219 141.308594 269.113281 153.058594 C 266.933594 148.835938 263.484375 143.816406 260.863281 139.742188 L 259.6875 139.484375 C 245.089844 119.566406 226.71875 95.53125 199.359375 95.855469 L 197.402344 94.71875 C 197.191406 94.742188 196.976562 94.695312 196.769531 94.71875 C 194.039062 94.242188 191.351562 89.9375 189.828125 87.386719 C 188.082031 85.398438 187.640625 83.613281 188.515625 82.039062 C 194.902344 80.289062 201.566406 79.304688 208.191406 79.5 Z M 208.1875 79.496094 " fill-opacity="1" fill-rule="nonzero"/><path fill="#feaff7" d="M 180.898438 68.714844 C 175.003906 69.851562 168.707031 71.558594 163.128906 73.785156 L 153.605469 44.609375 C 153.683594 44.265625 153.78125 43.9375 153.96875 43.660156 C 154.425781 42.976562 167.472656 37.542969 169.113281 37.027344 L 170.742188 37.632812 L 180.898438 68.703125 Z M 180.898438 68.714844 " fill-opacity="1" fill-rule="nonzero"/><path fill="#febbf8" d="M 255.148438 118.8125 C 236.339844 110.230469 219.597656 96.824219 208.1875 79.496094 C 232.839844 80.226562 245.464844 98.816406 255.148438 118.8125 Z M 255.148438 118.8125 " fill-opacity="1" fill-rule="nonzero"/><path fill="#fed1fa" d="M 292.59375 146.71875 C 292.398438 147.195312 292.109375 147.894531 291.71875 147.886719 C 290.199219 147.867188 279.417969 146.628906 278.515625 146.238281 L 277.363281 144.816406 C 273.1875 130.539062 268.195312 114.65625 260.863281 101.691406 C 261.089844 101.246094 261.484375 100.601562 261.824219 100.6875 C 263.445312 101.097656 272.777344 104.273438 273.769531 104.957031 C 276.214844 106.636719 279.542969 113.144531 280.953125 115.910156 C 282.878906 119.6875 284.582031 123.554688 286.257812 127.457031 C 287.207031 129.671875 293.289062 144.730469 293.117188 145.972656 C 293.082031 146.238281 292.863281 146.484375 292.59375 146.71875 Z M 292.59375 146.71875 " fill-opacity="1" fill-rule="nonzero"/><path fill="#fed6fa" d="M 276.722656 107.398438 C 280.878906 113.722656 284.609375 121.335938 287.515625 128.328125 C 289.972656 134.253906 292.644531 141.835938 294.492188 147.988281 C 296.433594 154.429688 297.71875 161.152344 299.570312 167.648438 C 299.890625 168.777344 299.875 170.335938 300.203125 171.457031 C 300.0625 178.6875 295.585938 168.644531 297.664062 165.117188 C 294.300781 160 292.433594 152.84375 292.589844 146.722656 C 290.457031 139.980469 278.894531 108.816406 273.714844 106.292969 L 260.859375 101.695312 C 254.910156 91.164062 246.464844 82.160156 236.742188 75.058594 C 253.804688 82.847656 266.242188 91.453125 276.722656 107.402344 Z M 276.722656 107.398438 " fill-opacity="1" fill-rule="nonzero"/><path fill="#fec1f8" d="M 313.535156 197.453125 C 315.160156 198.851562 317.292969 200.367188 319.246094 201.261719 C 319.863281 201.546875 320.449219 201.84375 321.148438 201.894531 C 320.363281 201.769531 318.140625 202.621094 316.3125 200.8125 L 295.765625 201.261719 C 291.703125 194.410156 290.660156 190.132812 288.148438 182.867188 L 289.125 181.664062 C 291.953125 181.3125 301.480469 181.167969 303.382812 182.929688 C 305.675781 188.195312 308.660156 192.925781 312.335938 197.132812 L 313.535156 197.457031 Z M 313.535156 197.453125 " fill-opacity="1" fill-rule="nonzero"/><path fill="#fec6f9" d="M 297.667969 165.109375 C 298.425781 168.007812 299.167969 171.007812 299.578125 173.984375 L 300.210938 171.453125 C 301.398438 175.488281 303.019531 179.609375 304.648438 183.503906 C 307 189.097656 308.828125 193.410156 313.535156 197.453125 C 312.738281 199.050781 310.84375 196.382812 310.382812 195.84375 C 308.523438 193.691406 303.34375 184.203125 302.738281 183.828125 C 299.839844 182.042969 291.699219 183.253906 288.152344 182.867188 C 285.832031 176.148438 284.394531 170.535156 282.445312 163.839844 C 282.617188 163.363281 282.875 162.65625 283.269531 162.636719 C 285.058594 162.542969 295.417969 163.328125 296.882812 163.773438 L 297.675781 165.109375 Z M 297.667969 165.109375 " fill-opacity="1" fill-rule="nonzero"/><path fill="#feaff7" d="M 196.761719 94.714844 C 191.121094 95.457031 184.753906 99.605469 181.53125 104.230469 L 180.898438 104.230469 C 178.363281 99.761719 175.40625 95.535156 172.648438 91.199219 C 172.121094 90.375 172.105469 89.34375 170.746094 89.644531 C 176.675781 86.847656 182.066406 83.804688 188.515625 82.035156 C 190.203125 86.730469 193.9375 90.664062 196.769531 94.71875 Z M 196.761719 94.714844 " fill-opacity="1" fill-rule="nonzero"/><path fill="#fecbf9" d="M 292.59375 146.71875 C 294.492188 152.734375 296.085938 159 297.667969 165.109375 L 282.4375 163.839844 C 280.597656 157.535156 279.195312 151.074219 277.363281 144.816406 Z M 292.59375 146.71875 " fill-opacity="1" fill-rule="nonzero"/><path fill="#fee2fb" d="M 330.035156 214.574219 C 328.960938 215.066406 327.398438 215.46875 326.222656 215.84375 L 325.589844 215.210938 C 326.632812 214.996094 328.964844 213.015625 330.03125 214.574219 Z M 330.035156 214.574219 " fill-opacity="1" fill-rule="nonzero"/><path fill="#fec5f8" d="M 253.242188 51.589844 C 254.351562 52.128906 256.039062 53.140625 257.054688 53.496094 C 273.015625 68.730469 294.015625 77.269531 316.570312 71.855469 L 319.25 72.519531 C 322.910156 77.292969 326.472656 82.855469 328.769531 88.375 C 284.054688 104.9375 231.804688 74.710938 225.324219 27.492188 C 236.457031 34.183594 240.71875 45.511719 253.25 51.589844 Z M 253.242188 51.589844 " fill-opacity="1" fill-rule="nonzero"/><path fill="#fe64ef" d="M 222.148438 279.894531 C 222.574219 280.019531 222.992188 280.398438 223.417969 280.527344 C 231.6875 288.992188 242.816406 293.289062 253.242188 298.285156 C 253.863281 298.910156 253.4375 299.125 251.972656 298.921875 C 236.101562 295.09375 216.851562 291.601562 200.566406 292.582031 L 196.417969 291.957031 C 181.738281 285.082031 167.097656 278.171875 152.480469 271.226562 L 152.332031 269.75 C 152.382812 269.558594 152.296875 269.320312 152.332031 269.117188 C 156.292969 264.832031 159.597656 259.292969 161.851562 253.898438 C 162.007812 253.992188 162.332031 253.808594 162.488281 253.898438 L 165.085938 254.433594 C 182.09375 263.148438 199.34375 271.605469 217.707031 277.203125 L 222.148438 279.898438 Z M 222.148438 279.894531 " fill-opacity="1" fill-rule="nonzero"/><path fill="#fea8f5" d="M 198.03125 307.164062 L 199.460938 307.480469 C 201.96875 316.574219 205.335938 325.261719 209.457031 333.800781 C 210.664062 334.066406 211.617188 335.0625 212.316406 336.773438 C 214.632812 338.367188 215.582031 339.917969 215.171875 341.410156 C 219.941406 346.664062 225.074219 351.722656 231.671875 354.726562 L 231.671875 355.363281 C 229.753906 355.363281 221.722656 359.742188 217.863281 360.273438 C 215.363281 360.613281 211.992188 360.601562 209.457031 360.4375 C 206.648438 359.867188 204.976562 358.472656 202.914062 356.726562 C 196.78125 351.539062 192.328125 343.96875 188.558594 337.097656 C 186.398438 333.167969 182.484375 325.96875 183.097656 321.65625 C 183.121094 321.464844 183.265625 321.289062 183.4375 321.121094 C 183.15625 316.632812 185.0625 312.832031 189.148438 309.703125 C 192.726562 308.351562 194.359375 307.988281 198.03125 307.164062 Z M 198.03125 307.164062 " fill-opacity="1" fill-rule="nonzero"/><path fill="#fe57ee" d="M 200.566406 292.582031 C 191.148438 293.144531 180.792969 296.148438 172.640625 300.824219 L 170.796875 301.238281 C 160.847656 295.679688 150.902344 290.117188 140.953125 284.546875 L 140.90625 283.066406 C 141.011719 282.96875 140.800781 282.539062 140.90625 282.433594 C 143.222656 280.183594 151.6875 272.34375 152.332031 269.746094 L 200.5625 292.574219 Z M 200.566406 292.582031 " fill-opacity="1" fill-rule="nonzero"/><path fill="#fe38eb" d="M 126.316406 295.113281 L 129.875 295.96875 C 139.121094 301.496094 148.382812 306.761719 157.65625 311.777344 L 156.78125 313.507812 C 153.773438 316.828125 148.953125 323.578125 146.625 327.457031 C 133.246094 320.765625 119.882812 313.617188 107.917969 304.628906 L 126.320312 295.113281 Z M 126.316406 295.113281 " fill-opacity="1" fill-rule="nonzero"/><path fill="#fe48ed" d="M 140.910156 283.066406 L 172.640625 300.824219 C 167.550781 303.742188 160.703125 309.175781 156.777344 313.511719 C 156.898438 311.78125 155.746094 311.945312 154.746094 311.417969 C 145.105469 306.300781 135.308594 301.320312 126.316406 295.117188 L 126.316406 294.484375 C 131.296875 291.230469 136.613281 287.175781 140.910156 283.066406 Z M 140.910156 283.066406 " fill-opacity="1" fill-rule="nonzero"/><path fill="#feaef7" d="M 219.609375 305.261719 C 219.011719 306.132812 218.34375 306.960938 217.703125 307.800781 L 217.289062 310.503906 C 212.816406 316.789062 208.871094 324.375 210.394531 332.296875 L 209.453125 333.800781 C 206.207031 330.824219 204.949219 326.128906 202.796875 322.375 L 198.027344 307.164062 C 206.183594 305.339844 211.136719 304.988281 219.601562 305.261719 Z M 219.609375 305.261719 " fill-opacity="1" fill-rule="nonzero"/><path fill="#fe7df1" d="M 189.148438 309.703125 C 190.363281 309.953125 188.789062 311.492188 188.488281 311.902344 C 186.796875 314.230469 183.335938 318.242188 183.433594 321.121094 C 183.253906 321.675781 183.042969 321.664062 182.796875 321.121094 C 183.011719 318.820312 182.527344 315.234375 180.890625 313.511719 C 183.890625 311.792969 185.960938 310.90625 189.140625 309.703125 Z M 189.148438 309.703125 " fill-opacity="1" fill-rule="nonzero"/><path fill="#fe90f3" d="M 257.054688 300.191406 C 255.144531 300.605469 253.4375 299.277344 251.976562 298.921875 L 253.25 298.285156 C 254.320312 298.796875 256.503906 299.449219 257.058594 300.191406 Z M 257.054688 300.191406 " fill-opacity="1" fill-rule="nonzero"/><path fill="#fe9bf4" d="M 314.804688 238.039062 C 303.140625 240.863281 283.957031 244.683594 274.1875 236.136719 Z M 314.804688 238.039062 " fill-opacity="1" fill-rule="nonzero"/><path fill="#fee8fc" d="M 189.148438 27.492188 C 188.765625 27.652344 188.277344 28.582031 187.878906 28.761719 C 181.710938 31.550781 176.605469 34.722656 170.742188 37.640625 C 165.902344 40.050781 158.808594 43.511719 153.605469 44.617188 C 149.082031 45.582031 144.261719 45.265625 139.648438 45.25 C 143.09375 44.230469 146.800781 44.4375 150.34375 43.570312 C 152.3125 43.09375 154.53125 42.207031 156.371094 41.351562 C 166.988281 36.4375 176.96875 27.652344 187.5625 22.421875 L 189.140625 27.492188 Z M 189.148438 27.492188 " fill-opacity="1" fill-rule="nonzero"/><path fill="#fea0f5" d="M 209.453125 360.4375 C 209.242188 360.421875 209.027344 360.457031 208.816406 360.4375 C 191.371094 358.808594 178.226562 345.296875 181.058594 327.304688 C 181.378906 325.257812 182.621094 323.003906 182.800781 321.121094 L 183.4375 321.121094 C 183.5625 324.878906 190.402344 338.285156 192.6875 342 C 196.933594 348.902344 202.832031 355.855469 209.457031 360.441406 Z M 209.453125 360.4375 " fill-opacity="1" fill-rule="nonzero"/><path fill="#fe3eeb" d="M 115.527344 329.996094 C 114.9375 331.285156 112.847656 329.640625 112.160156 329.234375 C 105.382812 325.222656 99.105469 320.566406 92.679688 316.042969 C 96.730469 317.042969 101.101562 319.855469 104.6875 322.125 C 108.371094 324.457031 112.320312 327.042969 115.527344 330 Z M 115.527344 329.996094 " fill-opacity="1" fill-rule="nonzero"/><path fill="#fecaf8" d="M 319.246094 72.519531 C 300.382812 77.367188 281.25 73.96875 265.722656 62.269531 C 262.75 60.023438 258.617188 56.847656 257.046875 53.5 C 280.828125 61.769531 300.023438 47.449219 319.246094 72.527344 Z M 319.246094 72.519531 " fill-opacity="1" fill-rule="nonzero"/><path fill="#fec9f9" d="M 238.011719 337.605469 C 230.441406 341.945312 223.941406 344.125 215.167969 341.410156 C 212.6875 338.683594 210.609375 337.921875 209.457031 333.800781 C 206.832031 324.421875 212.242188 314.976562 217.707031 307.800781 C 219.601562 319.835938 227.742188 331.179688 238.019531 337.605469 Z M 238.011719 337.605469 " fill-opacity="1" fill-rule="nonzero"/><path fill="#fd5cee" d="M 132.667969 59.832031 C 129.550781 48.5625 112.171875 48.0625 108.546875 59.207031 C 106.375 63.707031 106.765625 66.550781 107.910156 71.246094 C 112.035156 81.878906 128.382812 83.125 132.03125 71.882812 C 133.207031 71.398438 133.691406 69.902344 133.300781 68.714844 C 134.171875 65.082031 134.097656 63.324219 132.667969 59.824219 Z M 124.402344 74.730469 C 108.890625 80.660156 104.507812 55.410156 120.277344 55.09375 C 131.433594 54.875 134.835938 70.734375 124.402344 74.730469 Z M 124.402344 74.730469 " fill-opacity="1" fill-rule="nonzero"/><path fill="#fedcfb" d="M 132.027344 71.886719 C 132.875 71.050781 133.15625 71.40625 132.660156 72.519531 C 131.277344 75.570312 129.480469 78.085938 126.316406 79.496094 C 118.886719 82.804688 109.867188 79.25 107.910156 71.253906 C 113.320312 80.46875 126.660156 82.054688 132.027344 71.886719 Z M 132.027344 71.886719 " fill-opacity="1" fill-rule="nonzero"/><path fill="#febbf8" d="M 118.703125 50.320312 C 124.660156 49.640625 129.210938 52.421875 132.296875 57.347656 C 132.667969 57.9375 133.976562 59.457031 132.660156 59.835938 C 128.425781 49.53125 113.335938 49.242188 108.546875 59.199219 C 107.226562 58.8125 108.546875 57.3125 108.917969 56.710938 C 110.851562 53.519531 114.929688 50.75 118.703125 50.320312 Z M 118.703125 50.320312 " fill-opacity="1" fill-rule="nonzero"/><path fill="#febff8" d="M 132.660156 72.519531 L 132.027344 71.886719 C 132.621094 70.761719 132.992188 69.984375 133.296875 68.714844 C 134.667969 70.101562 133.207031 71.316406 132.660156 72.519531 Z M 132.660156 72.519531 " fill-opacity="1" fill-rule="nonzero"/><path fill="#fe7bf1" d="M 196.128906 230.429688 C 196.359375 231.0625 196.539062 231.703125 196.761719 232.332031 C 199.316406 239.484375 201.832031 247.710938 205.011719 254.527344 L 203.933594 255.417969 C 192.492188 249.90625 181.050781 244.394531 169.605469 238.878906 L 169.472656 237.40625 C 169.539062 237.214844 169.40625 236.960938 169.472656 236.769531 C 171.472656 230.917969 173.277344 225.078125 174.546875 219.011719 L 196.121094 230.429688 Z M 196.128906 230.429688 " fill-opacity="1" fill-rule="nonzero"/><path fill="#fe70f0" d="M 205.011719 254.527344 C 209.308594 263.734375 215.378906 272.359375 222.148438 279.894531 C 201.152344 273.625 181.34375 264.980469 162.492188 253.894531 C 164.746094 248.375 167.492188 243.039062 169.472656 237.40625 Z M 205.011719 254.527344 " fill-opacity="1" fill-rule="nonzero"/><path fill="#fec3f8" d="M 223.417969 142.277344 C 223.667969 142.425781 223.839844 142.78125 224.054688 142.910156 C 225.734375 150.195312 226.449219 158.800781 229.128906 165.742188 C 228.578125 166.570312 226.03125 165.039062 225.398438 164.710938 C 211.582031 157.632812 196.863281 147.320312 185.640625 136.582031 C 182.328125 133.410156 178.550781 129.894531 176.457031 125.785156 C 177.71875 120.113281 182.527344 114.242188 187.882812 111.832031 C 188.050781 111.757812 188.328125 111.902344 188.515625 111.832031 L 189.921875 112.484375 C 198.0625 123.949219 210.289062 132.132812 221.933594 139.847656 L 223.417969 142.273438 Z M 223.417969 142.277344 " fill-opacity="1" fill-rule="nonzero"/><path fill="#fec1f9" d="M 260.859375 139.742188 C 260.074219 140.796875 257.6875 139.472656 256.722656 139.121094 C 236.457031 131.621094 217.144531 118.464844 202.78125 102.339844 C 200.859375 100.175781 198.394531 97.394531 197.398438 94.71875 C 224.742188 92.171875 247.628906 119.164062 260.863281 139.75 Z M 260.859375 139.742188 " fill-opacity="1" fill-rule="nonzero"/><path fill="#fec7f9" d="M 223.417969 142.277344 C 212.613281 135.632812 197.449219 124.789062 189.777344 114.691406 C 189.101562 113.800781 188.582031 112.988281 188.511719 111.839844 C 208.804688 104.222656 220.582031 125.667969 223.417969 142.277344 Z M 223.417969 142.277344 " fill-opacity="1" fill-rule="nonzero"/></svg>

